<?xml version="1.0" encoding="utf-8"?>
<!-- Generator: Adobe Illustrator 21.1.0, SVG Export Plug-In . SVG Version: 6.00 Build 0)  -->
<svg version="1.1"
	 id="Layer_1" xmlns:cc="http://creativecommons.org/ns#" xmlns:dc="http://purl.org/dc/elements/1.1/" xmlns:inkscape="http://www.inkscape.org/namespaces/inkscape" xmlns:rdf="http://www.w3.org/1999/02/22-rdf-syntax-ns#" xmlns:sodipodi="http://sodipodi.sourceforge.net/DTD/sodipodi-0.dtd" xmlns:svg="http://www.w3.org/2000/svg"
	 xmlns="http://www.w3.org/2000/svg" xmlns:xlink="http://www.w3.org/1999/xlink" x="0px" y="0px" width="48px" height="48px"
	 viewBox="0 0 48 48" style="enable-background:new 0 0 48 48;" xml:space="preserve">
<style type="text/css">
	.st0{fill:#FFCC59;}
	.st1{fill:#C7E7F9;}
	.st2{fill:#ADD9EA;}
</style>
<g transform="translate(0,-1004.3622)">
	<path class="st0" d="M32.6,1011.4c-2.8,0.2-5.3,1.8-6.5,4.5c-0.6,1.2,1.3,2.1,1.8,0.8c1.2-2.7,4.1-4,6.9-3.1
		c2.8,0.8,4.5,3.6,4.1,6.6s-2.9,5.1-5.7,5.1c-1.4,0-1.4,2,0,2c3.9,0,7.2-2.9,7.7-6.9c0.5-3.9-1.8-7.7-5.5-8.8
		C34.5,1011.4,33.5,1011.3,32.6,1011.4L32.6,1011.4z"/>
	<path class="st1" d="M23,1014.4c-0.1,0-0.2,0-0.3,0c-4.2,0-8.1,2.4-10.4,6.1c-3.3-1.1-6.9-0.7-9.5,1.7c-2.7,2.6-3.6,6.6-2.2,10.1
		c1.3,3.5,4.6,5.9,8.4,6.1c0,0,0,0,0.1,0h13.5c7,0,10.4-5.3,11.3-10.2c0.9-5.7-2.4-11.3-7.7-13.2C25.1,1014.6,24.1,1014.4,23,1014.4
		L23,1014.4z M23,1016.4L23,1016.4c0.8,0,1.7,0.2,2.5,0.5c4.5,1.6,7.2,6.2,6.4,11c-0.7,4.8-4.7,8.3-9.4,8.5c-4.5,0-8.9,0-13.4,0
		c-3-0.2-5.6-2-6.6-4.8c-1.1-2.8-0.4-5.9,1.8-7.9c2.1-2,5.2-2.2,8.1-1.1c0.7,0.2,1.1,0,1.4-0.6C15.8,1018.6,19.3,1016.2,23,1016.4
		L23,1016.4z"/>
	<path class="st0" d="M33,1004.4c-0.6,0-1,0.5-1,1l0,0v3c0,0.6,0.4,1,1,1s1-0.4,1-1l0,0v-3C34,1004.8,33.6,1004.4,33,1004.4
		L33,1004.4z"/>
	<path class="st0" d="M43,1008.4c-0.3,0-0.5,0.1-0.7,0.3l-2,2c-0.4,0.4-0.4,1,0,1.4s1,0.4,1.4,0l0,0l2-2c0.4-0.4,0.4-1,0-1.4
		C43.5,1008.5,43.2,1008.4,43,1008.4z"/>
	<path class="st0" d="M41,1026.4c-0.6,0-1,0.4-1,1c0,0.3,0.1,0.5,0.3,0.7l2,2c0.4,0.4,1,0.4,1.4,0s0.4-1,0-1.4l0,0l-2-2
		C41.5,1026.5,41.3,1026.4,41,1026.4z"/>
	<path class="st0" d="M44,1017.4c-0.6,0-1,0.4-1,1s0.4,1,1,1l0,0h3c0.6,0,1-0.4,1-1s-0.4-1-1-1l0,0H44z"/>
	<path class="st0" d="M23,1008.4c-0.6,0-1,0.4-1,1c0,0.3,0.1,0.5,0.3,0.7l2,2c0.4,0.4,1,0.4,1.4,0s0.4-1,0-1.4l0,0l-2-2
		C23.5,1008.5,23.3,1008.4,23,1008.4z"/>
	<path class="st1" d="M9,1040.4c-0.3,0-0.6,0.2-0.8,0.4c0,0-0.5,0.8-1,1.7c-0.3,0.5-0.5,0.9-0.7,1.4s-0.4,0.9-0.4,1.5
		c0,1.6,1.4,3,3,3s3-1.4,3-3c0-0.6-0.2-1-0.4-1.5s-0.5-1-0.7-1.4c-0.5-0.9-1-1.7-1-1.7C9.6,1040.5,9.3,1040.4,9,1040.4z M9,1043.2
		c0.1,0.1,0.1,0.1,0.1,0.2c0.2,0.4,0.5,0.9,0.6,1.2c0.2,0.4,0.2,0.7,0.2,0.7c0,0.6-0.4,1-1,1s-1-0.4-1-1c0,0,0.1-0.3,0.2-0.7
		c0.2-0.4,0.4-0.8,0.6-1.2C8.9,1043.3,8.9,1043.3,9,1043.2z"/>
	<path class="st1" d="M25,1040.4c-0.3,0-0.6,0.2-0.8,0.4c0,0-0.5,0.8-1,1.7c-0.3,0.5-0.5,0.9-0.7,1.4s-0.4,0.9-0.4,1.5
		c0,1.6,1.4,3,3,3s3-1.4,3-3c0-0.6-0.2-1-0.4-1.5c-0.2-0.5-0.5-1-0.7-1.4c-0.5-0.9-1-1.7-1-1.7C25.6,1040.5,25.3,1040.4,25,1040.4z
		 M25,1043.2c0.1,0.1,0.1,0.1,0.1,0.2c0.2,0.4,0.5,0.9,0.6,1.2c0.2,0.4,0.2,0.7,0.2,0.7c0,0.6-0.4,1-1,1s-1-0.4-1-1
		c0,0,0.1-0.3,0.2-0.7c0.2-0.4,0.4-0.8,0.6-1.2C24.9,1043.3,24.9,1043.3,25,1043.2z"/>
	<path class="st2" d="M17,1044.4c-0.3,0-0.6,0.2-0.8,0.4c0,0-0.5,0.8-1,1.7c-0.3,0.5-0.5,0.9-0.7,1.4s-0.4,0.9-0.4,1.5
		c0,1.6,1.4,3,3,3s3-1.4,3-3c0-0.6-0.2-1-0.4-1.5c-0.2-0.5-0.5-1-0.7-1.4c-0.5-0.9-1-1.7-1-1.7C17.6,1044.5,17.3,1044.4,17,1044.4z
		 M17,1047.2c0.1,0.1,0.1,0.1,0.1,0.2c0.2,0.4,0.5,0.9,0.6,1.2c0.2,0.4,0.2,0.7,0.2,0.7c0,0.6-0.4,1-1,1s-1-0.4-1-1
		c0,0,0.1-0.3,0.2-0.7c0.2-0.4,0.4-0.8,0.6-1.2C16.9,1047.3,16.9,1047.3,17,1047.2z"/>
</g>
</svg>
