<?xml version="1.0" encoding="utf-8"?>
<!-- Generator: Adobe Illustrator 21.1.0, SVG Export Plug-In . SVG Version: 6.00 Build 0)  -->
<svg version="1.1"
	 id="Layer_1" xmlns:cc="http://creativecommons.org/ns#" xmlns:dc="http://purl.org/dc/elements/1.1/" xmlns:inkscape="http://www.inkscape.org/namespaces/inkscape" xmlns:rdf="http://www.w3.org/1999/02/22-rdf-syntax-ns#" xmlns:sodipodi="http://sodipodi.sourceforge.net/DTD/sodipodi-0.dtd" xmlns:svg="http://www.w3.org/2000/svg"
	 xmlns="http://www.w3.org/2000/svg" xmlns:xlink="http://www.w3.org/1999/xlink" x="0px" y="0px" width="36px" height="38px"
	 viewBox="0 0 36 38" style="enable-background:new 0 0 36 38;" xml:space="preserve">
<style type="text/css">
	.st0{fill:#C7E7F9;}
	.st1{fill:#89C3EB;}
</style>
<g transform="translate(0,-1004.3622)">
	<path class="st0" d="M24,1004.4c-0.1,0-0.2,0-0.3,0c-4.2,0-8.1,2.4-10.4,6.1c-3.3-1.1-6.9-0.7-9.5,1.7c-2.7,2.6-3.6,6.6-2.2,10.1
		c1.3,3.5,4.6,5.9,8.4,6.1c0,0,0,0,0.1,0h13.5c6.2,0,10.4-5.3,11.3-10.2c0.9-5.7-2.4-11.3-7.7-13.2
		C26.1,1004.6,25.1,1004.4,24,1004.4L24,1004.4z M24,1006.4L24,1006.4c0.8,0,1.7,0.2,2.5,0.5c4.5,1.6,7.2,6.2,6.4,11
		c-0.7,4.8-4.7,8.3-9.4,8.5c-4.5,0-8.9,0-13.4,0c-3-0.2-5.6-2-6.6-4.8c-1.1-2.8-0.4-5.9,1.8-7.9c2.1-2,5.2-2.2,8.1-1.1
		c0.7,0.2,1.1,0,1.4-0.6C16.8,1008.6,20.3,1006.2,24,1006.4L24,1006.4z"/>
	<path class="st0" d="M11,1031.4c-0.3,0-0.5,0.1-0.7,0.3l-2,2c-0.4,0.4-0.4,1,0,1.4c0.4,0.4,1,0.4,1.4,0l0,0l2-2
		c0.4-0.4,0.4-1,0-1.4C11.5,1031.5,11.3,1031.4,11,1031.4z"/>
	<path class="st1" d="M19,1031.4c-0.3,0-0.5,0.1-0.7,0.3l-2,2c-0.4,0.4-0.4,1,0,1.4s1,0.4,1.4,0l0,0l2-2c0.4-0.4,0.4-1,0-1.4
		C19.5,1031.5,19.3,1031.4,19,1031.4z"/>
	<path class="st0" d="M27,1031.4c-0.3,0-0.5,0.1-0.7,0.3l-2,2c-0.4,0.4-0.4,1,0,1.4s1,0.4,1.4,0l0,0l2-2c0.4-0.4,0.4-1,0-1.4
		C27.5,1031.5,27.3,1031.4,27,1031.4L27,1031.4z"/>
	<path class="st1" d="M35,1031.4c-0.3,0-0.5,0.1-0.7,0.3l-2,2c-0.4,0.4-0.4,1,0,1.4c0.4,0.4,1,0.4,1.4,0l0,0l2-2
		c0.4-0.4,0.4-1,0-1.4C35.5,1031.5,35.3,1031.4,35,1031.4z"/>
	<path class="st1" d="M3,1031.4c-0.3,0-0.5,0.1-0.7,0.3l-2,2c-0.4,0.4-0.4,1,0,1.4s1,0.4,1.4,0l0,0l2-2c0.4-0.4,0.4-1,0-1.4
		C3.5,1031.5,3.3,1031.4,3,1031.4z"/>
	<path class="st0" d="M15,1038.4c-0.3,0-0.5,0.1-0.7,0.3l-2,2c-0.4,0.4-0.4,1,0,1.4s1,0.4,1.4,0l0,0l2-2c0.4-0.4,0.4-1,0-1.4
		C15.5,1038.5,15.3,1038.4,15,1038.4z"/>
	<path class="st1" d="M23,1038.4c-0.3,0-0.5,0.1-0.7,0.3l-2,2c-0.4,0.4-0.4,1,0,1.4s1,0.4,1.4,0l0,0l2-2c0.4-0.4,0.4-1,0-1.4
		C23.5,1038.5,23.3,1038.4,23,1038.4z"/>
	<path class="st0" d="M31,1038.4c-0.3,0-0.5,0.1-0.7,0.3l-2,2c-0.4,0.4-0.4,1,0,1.4s1,0.4,1.4,0l0,0l2-2c0.4-0.4,0.4-1,0-1.4
		C31.5,1038.5,31.3,1038.4,31,1038.4L31,1038.4z"/>
	<path class="st1" d="M7,1038.4c-0.3,0-0.5,0.1-0.7,0.3l-2,2c-0.4,0.4-0.4,1,0,1.4s1,0.4,1.4,0l0,0l2-2c0.4-0.4,0.4-1,0-1.4
		C7.5,1038.5,7.3,1038.4,7,1038.4z"/>
</g>
</svg>
