<?xml version="1.0" encoding="utf-8"?>
<!-- Generator: Adobe Illustrator 21.1.0, SVG Export Plug-In . SVG Version: 6.00 Build 0)  -->
<svg version="1.1"
	 id="Layer_1" xmlns:cc="http://creativecommons.org/ns#" xmlns:dc="http://purl.org/dc/elements/1.1/" xmlns:inkscape="http://www.inkscape.org/namespaces/inkscape" xmlns:rdf="http://www.w3.org/1999/02/22-rdf-syntax-ns#" xmlns:sodipodi="http://sodipodi.sourceforge.net/DTD/sodipodi-0.dtd" xmlns:svg="http://www.w3.org/2000/svg"
	 xmlns="http://www.w3.org/2000/svg" xmlns:xlink="http://www.w3.org/1999/xlink" x="0px" y="0px" width="48px" height="45px"
	 viewBox="0 0 48 45" style="enable-background:new 0 0 48 45;" xml:space="preserve">
<style type="text/css">
	.st0{fill:#FFCC59;}
	.st1{fill:#C7E7F9;}
</style>
<g transform="translate(0,-1004.3622)">
	<path class="st0" d="M32,1036.4c-0.3,0-0.6,0.1-0.8,0.4l-5,6c-0.4,0.4-0.3,1.1,0.1,1.4c0.2,0.2,0.5,0.3,0.8,0.2l3.3-0.6l-3.3,3.9
		c-0.4,0.4-0.3,1,0.1,1.4s1,0.3,1.4-0.1l0,0l5-6c0.4-0.4,0.3-1.1-0.1-1.4c-0.2-0.2-0.5-0.3-0.8-0.2l-3.3,0.6l3.3-3.9
		c0.4-0.4,0.3-1.1-0.1-1.4C32.5,1036.4,32.2,1036.4,32,1036.4z"/>
	<g>
		<path class="st1" d="M44.6,1045.5C44.6,1045.5,44.6,1045.5,44.6,1045.5l-1.3-0.6l1.1-0.6c0.5-0.2,0.7-0.8,0.5-1.3
			c-0.2-0.4-0.5-0.6-0.9-0.6c-0.2,0-0.3,0-0.5,0.1l-1.5,0.8v-1.8c0-0.6-0.4-1-1-1s-1,0.5-1,1v1.8l-1.5-0.8c-0.2-0.1-0.4-0.1-0.5-0.1
			c-0.6,0-1,0.5-1,1c0,0.4,0.2,0.7,0.6,0.9l1.1,0.6l-1.2,0.6c-0.5,0.2-0.7,0.8-0.5,1.3s0.8,0.7,1.3,0.5c0,0,0,0,0.1,0l1.6-0.8v1.9
			c0,0.6,0.4,1,1,1s1-0.4,1-1v-1.9l1.6,0.8c0.5,0.3,1.1,0.1,1.4-0.4S45.1,1045.8,44.6,1045.5z"/>
		<path class="st1" d="M39.7,1013.9c-1.1-0.4-2.2-0.6-3.3-0.6c-0.4,0.1-0.7,0.1-1.1,0.1c-1.2-3.8-3.9-7-7.7-8.4
			c-1-0.4-2.4-0.6-3.7-0.7c-4.4-0.1-8.6,2.6-11,6.6c-3.4-1.1-7.3-0.8-10,1.9c-2.8,2.9-3.7,7.1-2.3,10.9c1.5,3.8,4.9,6.4,8.9,6.6
			c0.1,0,0.1,0,0.1,0h2.6c0.1,0.6,0.3,1.1,0.5,1.7c1.4,3.6,4.9,6.1,8.9,6.3c4.4,0,9.7,0.1,14.8-0.1c5.8-0.4,10.6-4.7,11.5-10.5
			C48.8,1021.7,45.4,1015.9,39.7,1013.9z M12.1,1027.4c-0.1,0.3-0.1,0.6-0.1,0.9H9.5c-3.2-0.2-6-2.3-7.1-5.3
			c-1.1-3.1-0.4-6.5,1.9-8.8c2.2-2.2,5.6-2.4,8.6-1.2c0.4,0.2,0.8,0.1,1.1-0.2l0.2-0.2c0.1,0,0.2-0.1,0.2-0.2c2.1-3.8,6-6.2,9.9-6.1
			c0.9,0.1,1.8,0.2,2.7,0.6c3.1,1.1,5.3,3.7,6.3,6.8c-0.7,0.2-1.4,0.4-2.1,0.7c-2.5,1-4.7,2.9-6.2,5.3c-3.4-1.1-7.3-0.8-10,1.8
			c-0.9,1-1.7,1.9-2.2,3.2C12.5,1025.6,12.2,1026.5,12.1,1027.4z M45.9,1027.1c-0.8,5-5,8.7-10,8.9h-0.1H21.6c-3.2-0.1-6-2.1-7.1-5
			c-0.3-0.7-0.4-1.4-0.5-2.1c0-0.2,0-0.3,0-0.5c0-2.1,0.7-4.1,2.3-5.7c0.1-0.2,0.3-0.3,0.4-0.4c2.2-1.8,5.4-1.9,8.2-0.8
			c0.2,0,0.4,0,0.6,0c0.1,0,0.1,0,0.1,0c0.1,0,0.1,0,0.1,0c0.1,0,0.1,0,0.1,0c0.1,0,0.1,0,0.1,0c0.1,0,0.1,0,0.1,0l0.1-0.1
			c0.1,0,0.1-0.1,0.2-0.2c1.3-2.4,3.4-4.2,5.9-5.2c0.8-0.3,1.6-0.5,2.4-0.6c0.1,0,0.1,0,0.1,0c0.6-0.1,1.1-0.1,1.6-0.1
			c0.9,0,1.8,0.2,2.7,0.2C43.8,1017.2,46.7,1022.1,45.9,1027.1z"/>
		<path class="st1" d="M22.6,1045.5C22.6,1045.5,22.6,1045.5,22.6,1045.5l-1.3-0.6l1.1-0.6c0.5-0.2,0.7-0.8,0.5-1.3
			c-0.2-0.4-0.5-0.6-0.9-0.6c-0.2,0-0.3,0-0.5,0.1l-1.5,0.8v-1.8c0-0.6-0.4-1-1-1s-1,0.5-1,1v1.8l-1.5-0.8c-0.2-0.1-0.4-0.1-0.5-0.1
			c-0.6,0-1,0.5-1,1c0,0.4,0.2,0.7,0.6,0.9l1.1,0.6l-1.2,0.6c-0.5,0.2-0.7,0.8-0.5,1.3s0.8,0.7,1.3,0.5c0,0,0,0,0.1,0l1.6-0.8v1.9
			c0,0.6,0.4,1,1,1s1-0.4,1-1v-1.9l1.6,0.8c0.5,0.3,1.1,0.1,1.4-0.4S23.1,1045.8,22.6,1045.5z"/>
	</g>
</g>
</svg>
