<?xml version="1.0" encoding="utf-8"?>
<!-- Generator: Adobe Illustrator 21.1.0, SVG Export Plug-In . SVG Version: 6.00 Build 0)  -->
<svg version="1.1"
	 id="Layer_1" xmlns:cc="http://creativecommons.org/ns#" xmlns:dc="http://purl.org/dc/elements/1.1/" xmlns:inkscape="http://www.inkscape.org/namespaces/inkscape" xmlns:rdf="http://www.w3.org/1999/02/22-rdf-syntax-ns#" xmlns:sodipodi="http://sodipodi.sourceforge.net/DTD/sodipodi-0.dtd" xmlns:svg="http://www.w3.org/2000/svg"
	 xmlns="http://www.w3.org/2000/svg" xmlns:xlink="http://www.w3.org/1999/xlink" x="0px" y="0px" width="48px" height="48px"
	 viewBox="0 0 48 48" style="enable-background:new 0 0 48 48;" xml:space="preserve">
<style type="text/css">
	.st0{fill:#DEDEDE;}
	.st1{fill:#C7E7F9;}
</style>
<g>
	<path class="st0" d="M22.6,40.1l-1.3-0.6l1.1-0.5c0.5-0.2,0.7-0.8,0.5-1.3C22.8,37.2,22.4,37,22,37c-0.2,0-0.3,0-0.5,0.1L20,37.9
		V36c0.1-0.6-0.4-1-1-1s-1,0.5-1,1v1.8l-1.4-0.7C16.4,37,16.2,37,16,37c-0.6,0-1,0.5-1,1c0,0.4,0.2,0.7,0.6,0.9l1.1,0.6l-1.2,0.6
		c-0.5,0.2-0.7,0.8-0.5,1.3s0.8,0.7,1.3,0.5c0,0,0,0,0.1,0l1.6-0.8V43c0,0.6,0.4,1,1,1s1-0.4,1-1v-1.9l1.6,0.8
		c0.5,0.3,1.1,0.1,1.4-0.4S23.1,40.4,22.6,40.1z"/>
	<path class="st1" d="M45.1,8.4c-2.7-2.7-6.6-3-10-1.9c-2.4-4-6.6-6.7-11-6.6c-1.3,0.1-2.7,0.3-3.7,0.7C16.6,2,13.9,5.2,12.7,9
		c-0.4,0-0.7,0-1.1-0.1c-1.1,0-2.2,0.2-3.3,0.6c-5.7,2-9.1,7.8-8.2,13.8C1,29.1,5.8,33.4,11.6,33.8c5.1,0.2,10.4,0.1,14.8,0.1
		c4-0.2,7.5-2.7,8.9-6.3c0.2-0.6,0.4-1.1,0.5-1.7h2.6c0,0,0,0,0.1,0c4-0.2,7.4-2.8,8.9-6.6C48.8,15.5,47.9,11.3,45.1,8.4z M34,24.5
		c-0.1,0.7-0.2,1.4-0.5,2.1c-1.1,2.9-3.9,4.9-7.1,5H12.2h-0.1c-5-0.2-9.2-3.9-10-8.9S4.2,12.8,9,11.1c0.9,0,1.8-0.2,2.7-0.2
		c0.5,0,1,0,1.6,0.1c0,0,0,0,0.1,0c0.8,0.1,1.6,0.3,2.4,0.6c2.5,1,4.6,2.8,5.9,5.2c0.1,0.1,0.1,0.2,0.2,0.2l0.1,0.1c0,0,0,0,0.1,0
		c0,0,0,0,0.1,0c0,0,0,0,0.1,0c0,0,0,0,0.1,0c0,0,0,0,0.1,0c0.2,0,0.4,0,0.6,0c2.8-1.1,6-1,8.2,0.8c0.1,0.1,0.3,0.2,0.4,0.4
		c1.6,1.6,2.3,3.6,2.3,5.7C34,24.2,34,24.3,34,24.5z M45.6,18.6c-1.1,3-3.9,5.1-7.1,5.3H36c0-0.3,0-0.6-0.1-0.9
		c-0.1-0.9-0.4-1.8-0.7-2.7c-0.5-1.3-1.3-2.2-2.2-3.2c-2.7-2.6-6.6-2.9-10-1.8c-1.5-2.4-3.7-4.3-6.2-5.3c-0.7-0.3-1.4-0.5-2.1-0.7
		c1-3.1,3.2-5.7,6.3-6.8c0.9-0.4,1.8-0.5,2.7-0.6c3.9-0.1,7.8,2.3,9.9,6.1c0,0.1,0.1,0.2,0.2,0.2L34,8.4c0.3,0.3,0.7,0.4,1.1,0.2
		c3-1.2,6.4-1,8.6,1.2C46,12.1,46.7,15.5,45.6,18.6z"/>
	<path class="st0" d="M44.7,40.1l-1.3-0.6l1.1-0.5c0.5-0.2,0.7-0.8,0.5-1.3c-0.2-0.4-0.5-0.6-0.9-0.6c-0.2,0-0.3,0-0.5,0.1L42.1,38
		v-2c0-0.6-0.4-1-1-1s-1,0.5-1,1v1.8l-1.4-0.7C38.4,37,38.2,37,38.1,37c-0.6,0-1,0.5-1,1c0,0.4,0.2,0.7,0.6,0.9l1.1,0.6l-1.2,0.6
		c-0.5,0.2-0.7,0.8-0.5,1.3s0.8,0.7,1.3,0.5c0,0,0,0,0.1,0l1.6-0.8V43c0,0.6,0.4,1,1,1s1-0.4,1-1v-1.9l1.6,0.8
		c0.5,0.3,1.1,0.1,1.4-0.4C45.4,41,45.2,40.4,44.7,40.1z"/>
	<path class="st1" d="M33.6,44.1l-1.2-0.6l1.1-0.6c0.5-0.2,0.7-0.8,0.5-1.3c-0.2-0.4-0.5-0.6-0.9-0.6c-0.2,0-0.3,0-0.5,0.1l-1.5,0.8
		V40c0-0.6-0.5-1-1-1c-0.6,0-1,0.5-1,1v1.8L27.6,41c-0.2,0-0.4,0-0.6,0c-0.6,0-1,0.5-1,1c0,0.4,0.2,0.7,0.6,0.9l1.2,0.6l-1.2,0.6
		c-0.5,0.2-0.7,0.8-0.5,1.3s0.8,0.7,1.3,0.5c0,0,0,0,0.1,0l1.6-0.8V47c0,0.6,0.4,1,1,1s1-0.4,1-1v-1.8l1.5,0.8
		c0.5,0.3,1.1,0.1,1.4-0.4S34.1,44.4,33.6,44.1z"/>
	<path class="st1" d="M11.6,44.1l-1.3-0.6l1.1-0.5c0.5-0.2,0.7-0.8,0.5-1.3C11.8,41.2,11.4,41,11,41c-0.2,0-0.3,0-0.5,0.1L9,41.9V40
		c0-0.6-0.4-1-1-1s-1,0.5-1,1v1.8l-1.4-0.7C5.3,41,5.2,41,5,41c-0.6,0-1,0.5-1,1c0,0.4,0.2,0.7,0.6,0.9l1.1,0.6l-1.2,0.6
		C4,44.3,3.8,44.9,4,45.4c0.2,0.5,0.8,0.7,1.3,0.5c0,0,0,0,0.1,0L7,45.1V47c0,0.6,0.4,1,1,1s1-0.4,1-1v-1.9l1.6,0.8
		c0.5,0.3,1.1,0.1,1.4-0.4S12.1,44.4,11.6,44.1z"/>
</g>
</svg>
