<?xml version="1.0" encoding="utf-8"?>
<!-- Generator: Adobe Illustrator 21.1.0, SVG Export Plug-In . SVG Version: 6.00 Build 0)  -->
<svg version="1.1"
	 id="Layer_1" xmlns:cc="http://creativecommons.org/ns#" xmlns:dc="http://purl.org/dc/elements/1.1/" xmlns:inkscape="http://www.inkscape.org/namespaces/inkscape" xmlns:rdf="http://www.w3.org/1999/02/22-rdf-syntax-ns#" xmlns:sodipodi="http://sodipodi.sourceforge.net/DTD/sodipodi-0.dtd" xmlns:svg="http://www.w3.org/2000/svg"
	 xmlns="http://www.w3.org/2000/svg" xmlns:xlink="http://www.w3.org/1999/xlink" x="0px" y="0px" width="48px" height="48px"
	 viewBox="0 0 48 48" style="enable-background:new 0 0 48 48;" xml:space="preserve">
<style type="text/css">
	.st0{fill:#FEC04F;}
</style>
<g transform="translate(0,-1004.3622)">
	<path class="st0" d="M24,1015.4c-7.2,0-13,5.8-13,13c0,7.2,5.8,13,13,13s13-5.8,13-13C37,1021.2,31.2,1015.4,24,1015.4z M24,1017.4
		c6.1,0,11,4.9,11,11s-4.9,11-11,11s-11-4.9-11-11C13,1022.3,17.9,1017.4,24,1017.4z"/>
	<path class="st0" d="M24,1004.4c-0.6,0-1,0.5-1,1l0,0v5c0,0.6,0.4,1,1,1s1-0.4,1-1l0,0v-5C25,1004.8,24.6,1004.4,24,1004.4
		L24,1004.4z"/>
	<path class="st0" d="M41,1010.4c-0.3,0-0.5,0.1-0.7,0.3l-4,4c-0.4,0.4-0.4,1,0,1.4s1,0.4,1.4,0l0,0l4-4c0.4-0.4,0.4-1,0-1.4
		C41.5,1010.5,41.3,1010.4,41,1010.4z"/>
	<path class="st0" d="M7,1010.4c-0.6,0-1,0.4-1,1c0,0.3,0.1,0.5,0.3,0.7l4,4c0.4,0.4,1,0.4,1.4,0s0.4-1,0-1.4l0,0l-4-4
		C7.5,1010.5,7.3,1010.4,7,1010.4z"/>
	<path class="st0" d="M24,1045.4c-0.6,0-1,0.5-1,1v5c0,0.6,0.4,1,1,1s1-0.4,1-1l0,0v-5C25,1045.8,24.6,1045.4,24,1045.4L24,1045.4z"
		/>
	<path class="st0" d="M37,1040.4c-0.6,0-1,0.4-1,1c0,0.3,0.1,0.5,0.3,0.7l4,4c0.4,0.4,1,0.4,1.4,0s0.4-1,0-1.4l0,0l-4-4
		C37.5,1040.5,37.3,1040.4,37,1040.4z"/>
	<path class="st0" d="M11,1040.4c-0.3,0-0.5,0.1-0.7,0.3l-4,4c-0.4,0.4-0.4,1,0,1.4s1,0.4,1.4,0l0,0l4-4c0.4-0.4,0.4-1,0-1.4
		C11.5,1040.5,11.3,1040.4,11,1040.4z"/>
	<path class="st0" d="M42,1027.4c-0.6,0-1,0.4-1,1s0.4,1,1,1l0,0h5c0.6,0,1-0.4,1-1s-0.4-1-1-1l0,0H42z"/>
	<path class="st0" d="M1,1027.4c-0.6,0-1,0.4-1,1s0.4,1,1,1l0,0h5c0.6,0,1-0.4,1-1s-0.4-1-1-1l0,0H1z"/>
</g>
</svg>
