<?xml version="1.0" encoding="utf-8"?>
<!-- Generator: Adobe Illustrator 21.1.0, SVG Export Plug-In . SVG Version: 6.00 Build 0)  -->
<svg version="1.1"
	 id="Layer_1" xmlns:cc="http://creativecommons.org/ns#" xmlns:dc="http://purl.org/dc/elements/1.1/" xmlns:inkscape="http://www.inkscape.org/namespaces/inkscape" xmlns:rdf="http://www.w3.org/1999/02/22-rdf-syntax-ns#" xmlns:sodipodi="http://sodipodi.sourceforge.net/DTD/sodipodi-0.dtd" xmlns:svg="http://www.w3.org/2000/svg"
	 xmlns="http://www.w3.org/2000/svg" xmlns:xlink="http://www.w3.org/1999/xlink" x="0px" y="0px" width="48px" height="34px"
	 viewBox="0 0 48 34" style="enable-background:new 0 0 48 34;" xml:space="preserve">
<style type="text/css">
	.st0{fill:#FFCC5C;}
	.st1{fill:#C7E7F9;}
</style>
<g transform="translate(0,-1004.3622)">
	<path class="st0" d="M32.6,1011.4c-2.8,0.2-5.2,1.8-6.4,4.5c-0.6,1.2,1.3,2.1,1.8,0.8c1.2-2.7,4.1-3.9,6.8-3.1
		c2.8,0.8,4.5,3.6,4.1,6.6s-2.9,5.1-5.8,5.1c-1.4,0-1.4,2,0,2c3.9,0,7.2-2.9,7.8-6.9c0.6-3.9-1.8-7.7-5.5-8.8
		C34.5,1011.4,33.5,1011.3,32.6,1011.4L32.6,1011.4z"/>
	<path class="st1" d="M23,1014.4c-0.1,0-0.2,0-0.3,0c-4.2,0-8.1,2.4-10.4,6.1c-3.3-1.1-6.9-0.7-9.5,1.7c-2.7,2.6-3.6,6.6-2.2,10.1
		c1.3,3.5,4.6,5.9,8.4,6.1c5.4,0,10.2,0,14.1-0.1c5.8-0.3,9.9-4.6,10.7-10.1c0.9-5.7-2.4-11.3-7.7-13.2
		C25.1,1014.6,24.1,1014.4,23,1014.4L23,1014.4z M23,1016.4L23,1016.4c0.8,0,1.7,0.2,2.5,0.5c4.5,1.6,7.2,6.2,6.4,11
		c-0.7,4.8-4.7,8.3-9.4,8.5c-4.5,0-8.9,0-13.4,0c-3-0.2-5.6-2-6.6-4.8c-1.1-2.8-0.4-5.9,1.8-7.9c2.1-2,5.2-2.2,8.1-1.1
		c0.5,0.2,1-0.1,1.2-0.3C16.4,1017.9,19.6,1016.3,23,1016.4L23,1016.4z"/>
	<path class="st0" d="M33,1004.4c-0.6,0-1,0.5-1,1v3c0,0.6,0.4,1,1,1s1-0.4,1-1l0,0v-3C34,1004.8,33.6,1004.4,33,1004.4L33,1004.4z"
		/>
	<path class="st0" d="M43,1008.4c-0.3,0-0.5,0.1-0.7,0.3l-2,2c-0.4,0.4-0.4,1,0,1.4s1,0.4,1.4,0l0,0l2-2c0.4-0.4,0.4-1,0-1.4
		C43.5,1008.5,43.3,1008.4,43,1008.4L43,1008.4z"/>
	<path class="st0" d="M41,1026.4c-0.6,0-1,0.4-1,1c0,0.3,0.1,0.5,0.3,0.7l2,2c0.4,0.4,1,0.4,1.4,0s0.4-1,0-1.4l0,0l-2-2
		C41.5,1026.5,41.3,1026.4,41,1026.4z"/>
	<path class="st0" d="M44,1017.4c-0.6,0-1,0.4-1,1s0.4,1,1,1l0,0h3c0.6,0,1-0.4,1-1s-0.4-1-1-1l0,0H44z"/>
	<path class="st0" d="M23,1008.4c-0.6,0-1,0.4-1,1c0,0.3,0.1,0.5,0.3,0.7l2,2c0.4,0.4,1,0.4,1.4,0s0.4-1,0-1.4l0,0l-2-2
		C23.5,1008.5,23.3,1008.4,23,1008.4z"/>
</g>
</svg>
