<?xml version="1.0" encoding="utf-8"?>
<!-- Generator: Adobe Illustrator 21.1.0, SVG Export Plug-In . SVG Version: 6.00 Build 0)  -->
<svg version="1.1"
	 id="Layer_1" xmlns:cc="http://creativecommons.org/ns#" xmlns:dc="http://purl.org/dc/elements/1.1/" xmlns:inkscape="http://www.inkscape.org/namespaces/inkscape" xmlns:rdf="http://www.w3.org/1999/02/22-rdf-syntax-ns#" xmlns:sodipodi="http://sodipodi.sourceforge.net/DTD/sodipodi-0.dtd" xmlns:svg="http://www.w3.org/2000/svg"
	 xmlns="http://www.w3.org/2000/svg" xmlns:xlink="http://www.w3.org/1999/xlink" x="0px" y="0px" width="36px" height="25px"
	 viewBox="0 0 36 25" style="enable-background:new 0 0 36 25;" xml:space="preserve">
<style type="text/css">
	.st0{fill:#C7E7F9;}
</style>
<g transform="translate(0,-1004.3622)">
	<path class="st0" d="M36,1020.6L36,1020.6c0-0.6,0-1.1,0.1-1.7c0-0.2,0-0.3-0.1-0.5c-0.1-0.9-0.4-1.8-0.7-2.7
		c-0.5-1.3-1.3-2.2-2.2-3.2c-2.7-2.6-6.6-2.9-10-1.8c-1.5-2.4-3.7-4.3-6.2-5.3c-0.7-0.3-1.4-0.5-2.1-0.7l0,0h-0.1
		c-0.1,0-0.3-0.1-0.4-0.1l0,0c0,0,0,0-0.1,0l0,0h-0.1c-0.1,0-0.1,0-0.2,0c-0.4,0-0.7-0.1-1.1-0.1l0,0l0,0c-0.4,0-0.7,0-1.1-0.1
		c-1.1,0-2.2,0.2-3.3,0.6c-5.7,2-9.1,7.8-8.2,13.8c0.9,5.8,5.7,10.1,11.5,10.5c5.1,0.2,10.4,0.1,14.8,0.1c4-0.2,7.5-2.7,8.9-6.3
		c0.2-0.6,0.4-1.1,0.5-1.7l0,0C35.9,1021.1,35.9,1020.8,36,1020.6z M34,1020c-0.1,0.7-0.2,1.4-0.5,2.1c-1.1,2.9-3.9,4.9-7.1,5H12.1
		c-5-0.2-9.2-3.9-10-8.9s2.1-9.9,6.9-11.6c0.9,0,1.8-0.2,2.7-0.2c0.5,0,1,0,1.6,0.1c0,0,0,0,0.1,0c0.8,0.1,1.6,0.3,2.4,0.6
		c2.5,1,4.6,2.8,5.9,5.2c0.1,0.1,0.1,0.2,0.2,0.2l0.1,0.1c0,0,0,0,0.1,0c0,0,0,0,0.1,0c0,0,0,0,0.1,0c0,0,0,0,0.1,0c0,0,0,0,0.1,0
		h0.6c2.8-1.1,6-1,8.2,0.8c0.1,0.1,0.3,0.2,0.4,0.4c1.6,1.6,2.3,3.6,2.3,5.7C34,1019.5,34,1020,34,1020z"/>
</g>
</svg>
