<?xml version="1.0" encoding="utf-8"?>
<!-- Generator: Adobe Illustrator 21.1.0, SVG Export Plug-In . SVG Version: 6.00 Build 0)  -->
<svg version="1.1"
	 id="Layer_1" xmlns:cc="http://creativecommons.org/ns#" xmlns:dc="http://purl.org/dc/elements/1.1/" xmlns:inkscape="http://www.inkscape.org/namespaces/inkscape" xmlns:rdf="http://www.w3.org/1999/02/22-rdf-syntax-ns#" xmlns:sodipodi="http://sodipodi.sourceforge.net/DTD/sodipodi-0.dtd" xmlns:svg="http://www.w3.org/2000/svg"
	 xmlns="http://www.w3.org/2000/svg" xmlns:xlink="http://www.w3.org/1999/xlink" x="0px" y="0px" width="48px" height="34px"
	 viewBox="0 0 48 34" style="enable-background:new 0 0 48 34;" xml:space="preserve">
<style type="text/css">
	.st0{fill:#C7E7F9;}
</style>
<g transform="translate(0,-1004.3622)">
	<path class="st0" d="M20.4,1005c-3.8,1.4-6.5,4.6-7.7,8.4c-0.4,0-0.7,0-1.1-0.1l0,0c-1.1,0-2.2,0.2-3.3,0.6
		c-5.7,2-9.1,7.8-8.2,13.8c0.9,5.8,5.7,10.1,11.5,10.5c5.1,0.2,10.4,0.1,14.8,0.1c4-0.2,7.5-2.7,8.9-6.3c0.2-0.6,0.4-1.1,0.5-1.7
		h2.6c0,0,0,0,0.1,0c4-0.2,7.4-2.8,8.9-6.6c1.4-3.8,0.5-8-2.3-10.9c-2.7-2.7-6.6-3-10-1.9c-2.4-4-6.6-6.7-11-6.6
		C22.8,1004.4,21.4,1004.6,20.4,1005L20.4,1005z M23.7,1006.3L23.7,1006.3c3.9-0.1,7.8,2.3,9.9,6.1c0,0.1,0.1,0.2,0.2,0.2l0.2,0.2
		c0.3,0.3,0.7,0.4,1.1,0.2c3-1.2,6.4-1,8.6,1.2c2.3,2.3,3,5.7,1.9,8.8c-1.1,3-3.9,5.1-7.1,5.3H36l0,0c0-0.3,0-0.6-0.1-0.9l0,0
		c-0.1-0.9-0.4-1.8-0.7-2.7c-0.5-1.3-1.3-2.2-2.2-3.2c-2.7-2.6-6.6-2.9-10-1.8c-1.5-2.4-3.7-4.3-6.2-5.3c-0.7-0.3-1.4-0.5-2.1-0.7
		c1-3.1,3.2-5.7,6.3-6.8C21.9,1006.5,22.8,1006.4,23.7,1006.3L23.7,1006.3z M11.7,1015.3L11.7,1015.3c0.5,0,1,0,1.6,0.1
		c0,0,0,0,0.1,0c0.8,0.1,1.6,0.3,2.4,0.6c2.5,1,4.6,2.8,5.9,5.2c0.1,0.1,0.1,0.2,0.2,0.2l0.1,0.1l0,0c0,0,0,0,0.1,0c0,0,0,0,0.1,0
		l0,0l0,0c0,0,0,0,0.1,0c0,0,0,0,0.1,0l0,0l0,0l0,0c0,0,0,0,0.1,0l0,0c0.2,0,0.4,0,0.6,0c2.8-1.1,6-1,8.2,0.8
		c0.1,0.1,0.3,0.2,0.4,0.4l0,0c1.6,1.6,2.3,3.6,2.3,5.7c0,0.2,0,0.3,0,0.5c-0.1,0.7-0.2,1.4-0.5,2.1c-1.1,2.9-3.9,4.9-7.1,5H12.2
		h-0.1c-5-0.2-9.2-3.9-10-8.9s2.1-9.9,6.9-11.6C9.9,1015.5,10.8,1015.3,11.7,1015.3L11.7,1015.3z"/>
</g>
</svg>
