<?xml version="1.0" encoding="utf-8"?>
<!-- Generator: Adobe Illustrator 21.1.0, SVG Export Plug-In . SVG Version: 6.00 Build 0)  -->
<svg version="1.1"
	 id="Layer_1" xmlns:cc="http://creativecommons.org/ns#" xmlns:dc="http://purl.org/dc/elements/1.1/" xmlns:inkscape="http://www.inkscape.org/namespaces/inkscape" xmlns:rdf="http://www.w3.org/1999/02/22-rdf-syntax-ns#" xmlns:sodipodi="http://sodipodi.sourceforge.net/DTD/sodipodi-0.dtd" xmlns:svg="http://www.w3.org/2000/svg"
	 xmlns="http://www.w3.org/2000/svg" xmlns:xlink="http://www.w3.org/1999/xlink" x="0px" y="0px" width="38px" height="28px"
	 viewBox="0 0 38 28" style="enable-background:new 0 0 38 28;" xml:space="preserve">
<style type="text/css">
	.st0{fill:#C7E7F9;}
</style>
<g>
	<path class="st0" d="M17.2,2.3c0.3,0.1,0.7,0.4,1.1,0.8h0.1c0.4,0.3,0.8,0.7,1.4,0.9c-0.5-0.2-0.9-0.6-1.3-0.9
		C17.9,2.6,17.5,2.3,17.2,2.3z"/>
	<path class="st0" d="M23.7,0.6c-0.5,0.2-1,0.6-1.4,0.9h-0.1c-0.5,0.4-0.8,0.6-1.1,0.8c0.3,0,0.8-0.3,1.3-0.8
		C22.8,1.2,23.2,0.8,23.7,0.6z"/>
	<path class="st0" d="M2,2.9L2,2.9c0.5,0.4,1,0.6,1.5,0.8C4,4,4.6,4.2,5.3,4.2c0,0,0,0,0.1,0c0,0,0,0,0,0c1.2,0,2-0.7,2.5-1.2
		c0.6-0.5,1-0.8,1.3-0.8c0,0,0.1,0,0.1,0c0.2,0.1,0.5,0.3,0.8,0.6l0.1,0.1L10.4,3c0.5,0.4,1.1,0.9,1.9,1c-0.7-0.2-1.2-0.7-1.6-1
		c-0.5-0.3-0.8-0.6-1.1-0.7c0.2,0.1,0.5,0.3,1,0.6L10.8,3c0.5,0.4,1.3,1,2.2,1c-0.1,0-0.2,0-0.2,0c-0.2,0-0.3,0-0.4-0.1
		c0.3,0.1,0.6,0.2,0.9,0.2c1.2,0,2-0.7,2.5-1.2c0.6-0.5,1.1-0.8,1.4-0.8c0,0,0,0,0,0c-0.1,0-0.1-0.1-0.2-0.1c0.1,0,0.1,0,0.2,0
		c0.3,0,0.8,0.3,1.5,0.9c0.6,0.5,1.3,1,2.3,1.1c-0.1,0-0.1,0-0.1,0c-0.4,0-0.7-0.1-1-0.2c0.4,0.2,0.8,0.3,1.3,0.3
		c1.2,0,2-0.7,2.5-1.2c0.6-0.5,1.1-0.8,1.4-0.8s0.8,0.3,1.4,0.8c-0.6-0.5-1.1-0.8-1.5-0.9c0,0,0.1,0,0.1,0c0.3,0,0.8,0.3,1.5,0.9
		h-0.1c0.6,0.5,1.4,1.2,2.5,1.2s2-0.7,2.5-1.2c0.6-0.5,1.1-0.8,1.4-0.8s1.3,0.4,2,0.8C35.5,3.5,36,3.9,36,3.9
		c0.2,0.2,0.4,0.3,0.6,0.3c0.3,0,0.6-0.1,0.8-0.4c0.3-0.3,0.3-0.8,0.1-1.1c0-0.1-0.1-0.2-0.2-0.3c0,0,0,0,0,0c0,0-0.7-0.5-1.5-1.1
		c-0.5-0.3-1-0.5-1.5-0.8c-0.1,0-0.2-0.1-0.3-0.1c-0.1,0-0.3-0.1-0.4-0.1c-0.3-0.1-0.5-0.1-0.8-0.1c-1.2,0-2,0.7-2.5,1.2
		c-0.6,0.5-1.1,0.8-1.4,0.8S28.2,2,27.5,1.5C26.9,1,26.1,0.3,25,0.3c-0.5,0-0.9,0.1-1.3,0.3c0.3-0.1,0.6-0.2,1-0.2c0,0,0.1,0,0.1,0
		c-1,0.1-1.6,0.7-2.3,1.2c-0.7,0.5-1.2,0.8-1.5,0.8c-0.1,0-0.1,0-0.2,0c0.1,0,0.2,0,0.2-0.1c0,0,0,0,0,0c-0.3,0-0.7-0.3-1.4-0.8
		C19,1,18.3,0.3,17.1,0.3c-0.5,0-0.9,0.1-1.3,0.3c0.3-0.1,0.6-0.2,1-0.2c0.3,0,0.6,0.1,0.9,0.2c-0.2-0.1-0.4-0.1-0.7-0.1
		c-1.1,0-1.8,0.7-2.4,1.2c-0.7,0.5-1.2,0.8-1.5,0.8c-0.1,0-0.2,0-0.4-0.1c0,0,0.1,0,0.1,0c0.1,0,0.3,0,0.4-0.1c0,0,0,0,0,0
		c-0.3,0-0.8-0.3-1.4-0.8C11.3,1,10.5,0.3,9.3,0.3C9,0.3,8.7,0.4,8.4,0.4c0.1,0,0.3-0.1,0.4-0.1c0.3,0,0.6,0.1,0.9,0.2
		c-0.2,0-0.3-0.1-0.5-0.1c-1.1,0-1.8,0.7-2.4,1.2C6.1,2.2,5.6,2.4,5.3,2.4c-0.1,0-0.3,0-0.5-0.1c0.1,0,0.3,0,0.4-0.1
		C4.9,2.2,4,1.8,3.4,1.5C2.6,1,2.2,0.6,2.2,0.6C1.9,0.3,1.7,0.3,1.5,0.3C1.2,0.3,1,0.4,0.9,0.5c0,0,0.1,0,0.1,0c0.1,0,0.2,0,0.3,0
		C0.8,0.6,0.5,1,0.5,1.3c0,0,0,0,0-0.1c0-0.3,0.2-0.6,0.4-0.8c-0.4,0-0.7,0.4-0.7,0.8c0,0.3,0.1,0.5,0.3,0.6C0.5,1.9,1.2,2.3,2,2.9z
		 M31.3,2.8c0.7-0.5,1.2-0.8,1.5-0.8c0.4,0,1.4,0.4,2.1,0.8c0.8,0.5,1.3,0.9,1.3,0.9c0.2,0.1,0.4,0.2,0.6,0.2c0.1,0,0.3,0,0.4-0.1
		C37,3.9,36.8,4,36.6,4c-0.2,0-0.3-0.1-0.5-0.2c0,0-0.5-0.4-1.3-0.9c-0.7-0.4-1.7-0.8-2.1-0.8c-0.4,0-0.9,0.3-1.6,0.9h-0.1
		C31.2,3,31.3,2.9,31.3,2.8z M30.2,1.6L30.2,1.6c-0.1,0.1-0.2,0.2-0.3,0.2C30,1.7,30.1,1.7,30.2,1.6z M28.8,4.1
		C28.8,4.1,28.8,4.1,28.8,4.1c-1.1,0-1.8-0.6-2.4-1.1C27,3.5,27.8,4.1,28.8,4.1z"/>
	<path class="st0" d="M15.8,0.6c-0.5,0.2-1,0.6-1.4,0.9h-0.1c-0.5,0.4-0.8,0.6-1.1,0.8c0.3,0,0.8-0.3,1.3-0.8
		C14.9,1.2,15.3,0.8,15.8,0.6z"/>
	<path class="st0" d="M6.8,1.5c0.4-0.3,0.9-0.8,1.6-1C7.6,0.6,7,1,6.5,1.5H6.4C5.9,1.9,5.6,2.1,5.2,2.2c0.1,0,0.1,0,0.1,0
		C5.7,2.2,6.2,2,6.8,1.5z"/>
	<path class="st0" d="M17.2,8.1c0.3,0.1,0.7,0.4,1.1,0.8h0.1c0.4,0.3,0.8,0.7,1.4,0.9c-0.5-0.2-0.9-0.6-1.3-0.9
		C17.9,8.4,17.5,8.1,17.2,8.1z"/>
	<path class="st0" d="M2,8.8L2,8.8c0.5,0.4,1,0.6,1.5,0.8c0.6,0.3,1.1,0.5,1.8,0.5c0,0,0,0,0.1,0c0,0,0,0,0,0c1.2,0,2-0.7,2.5-1.2
		c0.6-0.5,1-0.8,1.3-0.8c0,0,0.1,0,0.1,0c0.2,0.1,0.5,0.3,0.8,0.6l0.1,0.1l0.1,0.1c0.5,0.4,1.1,0.9,1.9,1c-0.7-0.2-1.2-0.7-1.6-1
		c-0.5-0.3-0.8-0.6-1.1-0.7c0.2,0.1,0.5,0.3,1,0.6l0.2,0.1c0.5,0.4,1.3,1,2.2,1c-0.1,0-0.2,0-0.2,0c-0.2,0-0.3,0-0.4-0.1
		c0.3,0.1,0.6,0.2,0.9,0.2c1.2,0,2-0.7,2.5-1.2c0.6-0.5,1.1-0.8,1.4-0.8c0,0,0,0,0,0c-0.1,0-0.1-0.1-0.2-0.1c0.1,0,0.1,0,0.2,0
		c0.3,0,0.8,0.3,1.5,0.9c0.6,0.5,1.3,1,2.3,1.1c-0.1,0-0.1,0-0.1,0c-0.4,0-0.7-0.1-1-0.2c0.4,0.2,0.8,0.3,1.3,0.3
		c1.2,0,2-0.7,2.5-1.2c0.6-0.5,1.1-0.8,1.4-0.8s0.8,0.3,1.4,0.8c-0.6-0.5-1.1-0.8-1.5-0.9c0,0,0.1,0,0.1,0c0.3,0,0.8,0.3,1.5,0.9
		h-0.1c0.6,0.5,1.4,1.2,2.5,1.2s2-0.7,2.5-1.2c0.6-0.5,1.1-0.8,1.4-0.8s1.3,0.4,2,0.8C35.5,9.4,36,9.8,36,9.8
		c0.2,0.2,0.4,0.3,0.6,0.3c0.3,0,0.6-0.1,0.8-0.4c0.3-0.3,0.3-0.8,0.1-1.1c0-0.1-0.1-0.2-0.2-0.3c0,0,0,0,0,0c0,0-0.7-0.5-1.5-1.1
		c-0.5-0.3-1-0.5-1.5-0.8c-0.1,0-0.2-0.1-0.3-0.1c-0.1,0-0.3-0.1-0.4-0.1c-0.3-0.1-0.5-0.1-0.8-0.1c-1.2,0-2,0.7-2.5,1.2
		c-0.6,0.5-1.1,0.8-1.4,0.8s-0.7-0.3-1.4-0.8c-0.6-0.5-1.4-1.2-2.5-1.2c-0.5,0-0.9,0.1-1.3,0.3c0.3-0.1,0.6-0.2,1-0.2
		c0,0,0.1,0,0.1,0c-1,0.1-1.6,0.7-2.3,1.2c-0.7,0.5-1.2,0.8-1.5,0.8c-0.1,0-0.1,0-0.2,0c0.1,0,0.2,0,0.2-0.1c0,0,0,0,0,0
		c-0.3,0-0.7-0.3-1.4-0.8c-0.7-0.5-1.4-1.2-2.5-1.2c-0.5,0-0.9,0.1-1.3,0.3c0.3-0.1,0.6-0.2,1-0.2c0.3,0,0.6,0.1,0.9,0.2
		c-0.2-0.1-0.4-0.1-0.7-0.1c-1.1,0-1.8,0.7-2.4,1.2c-0.7,0.5-1.2,0.8-1.5,0.8c-0.1,0-0.2,0-0.4-0.1c0,0,0.1,0,0.1,0
		c0.1,0,0.3,0,0.4-0.1c0,0,0,0,0,0c-0.3,0-0.8-0.3-1.4-0.8c-0.6-0.5-1.4-1.2-2.5-1.2C9,6.2,8.7,6.2,8.4,6.3c0.1,0,0.3-0.1,0.4-0.1
		c0.3,0,0.6,0.1,0.9,0.2c-0.2,0-0.3-0.1-0.5-0.1C8.1,6.4,7.4,7,6.8,7.5C6.1,8,5.6,8.3,5.3,8.3c-0.1,0-0.3,0-0.5-0.1
		c0.1,0,0.3,0,0.4-0.1C4.9,8,4,7.7,3.4,7.3C2.6,6.9,2.2,6.5,2.2,6.5C1.9,6.2,1.7,6.2,1.5,6.2C1.2,6.2,1,6.3,0.9,6.4c0,0,0.1,0,0.1,0
		c0.1,0,0.2,0,0.3,0C0.8,6.5,0.5,6.9,0.5,7.2c0,0,0,0,0-0.1c0-0.3,0.2-0.6,0.4-0.8c-0.4,0-0.7,0.4-0.7,0.8c0,0.3,0.1,0.5,0.3,0.6
		C0.5,7.7,1.2,8.2,2,8.8z M31.3,8.7c0.7-0.5,1.2-0.8,1.5-0.8c0.4,0,1.4,0.4,2.1,0.8c0.8,0.5,1.3,0.9,1.3,0.9
		c0.2,0.1,0.4,0.2,0.6,0.2c0.1,0,0.3,0,0.4-0.1c-0.1,0.1-0.3,0.2-0.5,0.2c-0.2,0-0.3-0.1-0.5-0.2c0,0-0.5-0.4-1.3-0.9
		C34.2,8.4,33.2,8,32.8,8c-0.4,0-0.9,0.3-1.6,0.9h-0.1C31.2,8.8,31.3,8.8,31.3,8.7z M30.2,7.4L30.2,7.4c-0.1,0.1-0.2,0.2-0.3,0.2
		C30,7.6,30.1,7.5,30.2,7.4z M28.8,10C28.8,10,28.8,10,28.8,10c-1.1,0-1.8-0.6-2.4-1.1C27,9.4,27.8,10,28.8,10z"/>
	<path class="st0" d="M15.8,6.5c-0.5,0.2-1,0.6-1.4,0.9h-0.1c-0.5,0.4-0.8,0.6-1.1,0.8c0.3,0,0.8-0.3,1.3-0.8
		C14.9,7.1,15.3,6.7,15.8,6.5z"/>
	<path class="st0" d="M23.7,6.5c-0.5,0.2-1,0.6-1.4,0.9h-0.1c-0.5,0.4-0.8,0.6-1.1,0.8c0.3,0,0.8-0.3,1.3-0.8
		C22.8,7.1,23.2,6.7,23.7,6.5z"/>
	<path class="st0" d="M6.8,7.3c0.4-0.3,0.9-0.8,1.6-1C7.6,6.5,7,6.9,6.5,7.3H6.4C5.9,7.7,5.6,8,5.2,8.1c0.1,0,0.1,0,0.1,0
		C5.7,8.1,6.2,7.8,6.8,7.3z"/>
	<path class="st0" d="M23.7,12.3c-0.5,0.2-1,0.6-1.4,0.9h-0.1c-0.5,0.4-0.8,0.6-1.1,0.8c0.3,0,0.8-0.3,1.3-0.8
		C22.8,12.9,23.2,12.6,23.7,12.3z"/>
	<path class="st0" d="M2,14.7L2,14.7c0.5,0.4,1,0.6,1.5,0.8C4,15.8,4.6,16,5.3,16c0,0,0,0,0.1,0c0,0,0,0,0,0c1.2,0,2-0.7,2.5-1.2
		C8.5,14.3,9,14,9.3,14c0,0,0.1,0,0.1,0c0.2,0.1,0.5,0.3,0.8,0.6l0.1,0.1l0.1,0.1c0.5,0.4,1.1,0.9,1.9,1c-0.7-0.2-1.2-0.7-1.6-1
		c-0.5-0.3-0.8-0.6-1.1-0.7c0.2,0.1,0.5,0.3,1,0.6l0.2,0.1c0.5,0.4,1.3,1,2.2,1c-0.1,0-0.2,0-0.2,0c-0.2,0-0.3,0-0.4-0.1
		c0.3,0.1,0.6,0.2,0.9,0.2c1.2,0,2-0.7,2.5-1.2c0.6-0.5,1.1-0.8,1.4-0.8c0,0,0,0,0,0C17.1,14,17,14,17,13.9c0.1,0,0.1,0,0.2,0
		c0.3,0,0.8,0.3,1.5,0.9c0.6,0.5,1.3,1,2.3,1.1c-0.1,0-0.1,0-0.1,0c-0.4,0-0.7-0.1-1-0.2c0.4,0.2,0.8,0.3,1.3,0.3
		c1.2,0,2-0.7,2.5-1.2c0.6-0.5,1.1-0.8,1.4-0.8s0.8,0.3,1.4,0.8c-0.6-0.5-1.1-0.8-1.5-0.9c0,0,0.1,0,0.1,0c0.3,0,0.8,0.3,1.5,0.9
		h-0.1c0.6,0.5,1.4,1.2,2.5,1.2s2-0.7,2.5-1.2c0.6-0.5,1.1-0.8,1.4-0.8s1.3,0.4,2,0.8c0.8,0.5,1.3,0.9,1.3,0.9
		c0.2,0.2,0.4,0.3,0.6,0.3c0.3,0,0.6-0.1,0.8-0.4c0.3-0.3,0.3-0.8,0.1-1.1c0-0.1-0.1-0.2-0.2-0.3c0,0,0,0,0,0c0,0-0.7-0.5-1.5-1.1
		c-0.5-0.3-1-0.5-1.5-0.8c-0.1,0-0.2-0.1-0.3-0.1c-0.1,0-0.3-0.1-0.4-0.1c-0.3-0.1-0.5-0.1-0.8-0.1c-1.2,0-2,0.7-2.5,1.2
		c-0.6,0.5-1.1,0.8-1.4,0.8s-0.7-0.3-1.4-0.8C26.9,12.7,26.1,12,25,12c-0.5,0-0.9,0.1-1.3,0.3c0.3-0.1,0.6-0.2,1-0.2
		c0,0,0.1,0,0.1,0c-1,0.1-1.6,0.7-2.3,1.2c-0.7,0.5-1.2,0.8-1.5,0.8c-0.1,0-0.1,0-0.2,0c0.1,0,0.2,0,0.2-0.1c0,0,0,0,0,0
		c-0.3,0-0.7-0.3-1.4-0.8C19,12.7,18.3,12,17.1,12c-0.5,0-0.9,0.1-1.3,0.3c0.3-0.1,0.6-0.2,1-0.2c0.3,0,0.6,0.1,0.9,0.2
		c-0.2-0.1-0.4-0.1-0.7-0.1c-1.1,0-1.8,0.7-2.4,1.2c-0.7,0.5-1.2,0.8-1.5,0.8c-0.1,0-0.2,0-0.4-0.1c0,0,0.1,0,0.1,0
		c0.1,0,0.3,0,0.4-0.1c0,0,0,0,0,0c-0.3,0-0.8-0.3-1.4-0.8c-0.6-0.5-1.4-1.2-2.5-1.2c-0.3,0-0.6,0.1-0.9,0.2c0.1,0,0.3-0.1,0.4-0.1
		c0.3,0,0.6,0.1,0.9,0.2c-0.2,0-0.3-0.1-0.5-0.1c-1.1,0-1.8,0.7-2.4,1.2c-0.7,0.5-1.2,0.8-1.5,0.8c-0.1,0-0.3,0-0.5-0.1
		c0.1,0,0.3,0,0.4-0.1c-0.4-0.1-1.2-0.4-1.8-0.8c-0.7-0.4-1.3-0.9-1.3-0.9C1.9,12,1.7,12,1.5,12c-0.2,0-0.4,0.1-0.6,0.2
		c0,0,0.1,0,0.1,0c0.1,0,0.2,0,0.3,0c-0.5,0.1-0.7,0.5-0.7,0.8c0,0,0,0,0-0.1c0-0.3,0.2-0.6,0.4-0.8c-0.4,0-0.7,0.4-0.7,0.8
		c0,0.3,0.1,0.5,0.3,0.6C0.5,13.6,1.2,14.1,2,14.7z M31.3,14.6c0.7-0.5,1.2-0.8,1.5-0.8c0.4,0,1.4,0.4,2.1,0.8
		c0.8,0.5,1.3,0.9,1.3,0.9c0.2,0.1,0.4,0.2,0.6,0.2c0.1,0,0.3,0,0.4-0.1c-0.1,0.1-0.3,0.2-0.5,0.2c-0.2,0-0.3-0.1-0.5-0.2
		c0,0-0.5-0.4-1.3-0.9c-0.7-0.4-1.7-0.8-2.1-0.8c-0.4,0-0.9,0.3-1.6,0.9h-0.1C31.2,14.7,31.3,14.7,31.3,14.6z M30.2,13.3L30.2,13.3
		c-0.1,0.1-0.2,0.2-0.3,0.2C30,13.5,30.1,13.4,30.2,13.3z M28.8,15.9C28.8,15.9,28.8,15.9,28.8,15.9c-1.1,0-1.8-0.6-2.4-1.1
		C27,15.3,27.8,15.8,28.8,15.9z"/>
	<path class="st0" d="M15.8,12.3c-0.5,0.2-1,0.6-1.4,0.9h-0.1c-0.5,0.4-0.8,0.6-1.1,0.8c0.3,0,0.8-0.3,1.3-0.8
		C14.9,12.9,15.3,12.6,15.8,12.3z"/>
	<path class="st0" d="M6.8,13.2c0.4-0.3,0.9-0.8,1.6-1c-0.8,0.1-1.4,0.6-1.9,1H6.4c-0.5,0.4-0.8,0.6-1.1,0.8c0.1,0,0.1,0,0.1,0
		C5.7,14,6.2,13.7,6.8,13.2z"/>
	<path class="st0" d="M17.2,14c0.3,0.1,0.7,0.4,1.1,0.8h0.1c0.4,0.3,0.8,0.7,1.4,0.9c-0.5-0.2-0.9-0.6-1.3-0.9
		C17.9,14.3,17.5,14,17.2,14z"/>
	<path class="st0" d="M37.4,20.1c0,0-0.7-0.5-1.5-1.1l-0.2-0.1c-0.9-0.5-1.8-1-2.8-1c0,0,0,0-0.1,0c0,0,0,0,0,0
		c-1.2,0-2,0.7-2.5,1.2c-0.6,0.5-1,0.8-1.3,0.8c-0.1,0-0.1,0-0.2,0c0,0,0,0,0,0c0,0-0.1,0-0.1,0c-0.3-0.1-0.6-0.4-1.1-0.7
		c-0.6-0.5-1.4-1.2-2.5-1.2s-2,0.7-2.5,1.2c-0.6,0.5-1.1,0.8-1.4,0.8s-0.7-0.3-1.4-0.8c-0.6-0.5-1.4-1.2-2.5-1.2
		c-1.2,0-2,0.7-2.5,1.2c-0.6,0.5-1.1,0.8-1.4,0.8s-0.8-0.3-1.4-0.8c-0.6-0.5-1.4-1.2-2.5-1.2s-2,0.7-2.5,1.2
		c-0.6,0.5-1.1,0.8-1.4,0.8c-0.3,0-1.3-0.4-2-0.8c-0.7-0.4-1.3-0.9-1.3-0.9c-0.3-0.3-0.5-0.3-0.7-0.3c-0.6,0-1,0.5-1,1
		c0,0,0,0,0,0.1c0,0,0,0,0,0c0,0,0,0.1,0,0.1c0,0,0,0,0,0.1c0,0.2,0.1,0.4,0.3,0.5c0,0,0.7,0.5,1.5,1.1l0.2,0.1c0.9,0.5,1.8,1,2.8,1
		c0,0,0,0,0.1,0c0,0,0,0,0,0c1.2,0,2-0.7,2.5-1.2c0.6-0.5,1-0.8,1.3-0.8c0.1,0,0.1,0,0.2,0c0,0,0,0,0,0c0,0,0.1,0,0.1,0
		c0.3,0.1,0.6,0.4,1.1,0.7l-0.1-0.1l0.2,0.1c0.6,0.5,1.4,1.1,2.4,1.1s1.8-0.7,2.4-1.2c0.7-0.5,1.2-0.8,1.5-0.8s0.8,0.3,1.5,0.9
		c0,0,0.1,0.1,0.1,0.1h0c-0.7-0.6-1.2-0.9-1.6-0.9c0.3,0,0.8,0.3,1.4,0.8c0.6,0.5,1.4,1.2,2.5,1.2c0,0,0,0,0.1,0
		c-0.6,0-1.1-0.2-1.5-0.5c0.4,0.2,0.9,0.4,1.4,0.4c1.1,0,1.8-0.7,2.4-1.2s1.2-0.8,1.5-0.8c0.1,0,0.3,0.1,0.4,0.1c-0.1,0-0.2,0-0.2,0
		c0,0-0.1,0-0.1,0c0.3,0,0.7,0.3,1.3,0.8c0.6,0.5,1.4,1.2,2.5,1.2c0.1,0,0.1,0,0.2,0c-0.3,0-0.6-0.1-0.8-0.2c0.2,0,0.4,0.1,0.6,0.1
		c1.1,0,1.9-0.6,2.5-1.3c0.7-0.5,1.2-0.8,1.5-0.8c0.4,0,1.4,0.4,2.1,0.8c0.2,0.2,0.4,0.3,0.6,0.4c-0.1-0.1-0.2-0.1-0.3-0.2
		c-0.7-0.4-1.7-0.8-2.1-0.8c-0.1,0-0.1,0-0.2,0c0.4,0.1,1.2,0.4,1.8,0.8c0.8,0.5,1.3,0.9,1.3,0.9c0.2,0.2,0.4,0.3,0.6,0.3
		c0.2,0,0.3,0,0.5-0.1c0,0,0,0-0.1,0c-0.2,0-0.3-0.1-0.5-0.2c0,0-0.1-0.1-0.2-0.2c0.2,0.1,0.3,0.2,0.5,0.2c0.3,0,0.5-0.1,0.7-0.3
		c0,0,0.1-0.1,0.1-0.2c0,0.1-0.1,0.3-0.2,0.4c-0.1,0.1-0.2,0.2-0.3,0.3c0.2,0,0.4-0.1,0.5-0.3c0.2-0.2,0.2-0.4,0.2-0.5
		c0-0.1-0.1-0.1-0.1-0.2c0,0,0-0.1,0-0.1C37.7,20.4,37.6,20.2,37.4,20.1z M5.3,20.1c-0.4,0-1.4-0.4-2.1-0.8S2,18.4,2,18.4
		c0,0,0,0,0,0c0,0,0,0,0,0c0,0,0.6,0.5,1.3,0.9S4.9,20.1,5.3,20.1C5.3,20.1,5.3,20.1,5.3,20.1C5.3,20.1,5.3,20.1,5.3,20.1z
		 M6.8,19.3c-0.1,0-0.1,0.1-0.2,0.1C6.7,19.3,6.8,19.3,6.8,19.3l0.1-0.1C6.8,19.2,6.8,19.3,6.8,19.3z M13.1,20.1
		c-0.3,0-0.8-0.3-1.5-0.9c-0.6-0.5-1.3-1.1-2.4-1.1c0,0,0,0,0,0c1.1,0,1.8,0.6,2.4,1.1h0.1C12.4,19.7,12.8,20,13.1,20.1
		C13.2,20.1,13.2,20.1,13.1,20.1z M19.7,19.3l-0.2-0.1c-0.6-0.5-1.3-1-2.3-1.1c0.1,0,0.1,0,0.1,0C18.4,18.1,19.1,18.7,19.7,19.3
		L19.7,19.3l0.2,0.1c0.2,0.2,0.5,0.3,0.6,0.4C20.3,19.7,20,19.5,19.7,19.3z"/>
	<path class="st0" d="M13.1,21.8C13.1,21.8,13.1,21.8,13.1,21.8c0,0-0.1,0-0.1,0C13.1,21.8,13.1,21.8,13.1,21.8z"/>
	<path class="st0" d="M31.4,20.7c-0.6,0.5-1.3,1.1-2.4,1.2c0,0,0.1,0,0.1,0C30.3,21.8,30.9,21.2,31.4,20.7l0.2,0.1
		c0.6-0.5,1-0.8,1.4-0.8c-0.1,0-0.2,0-0.2,0C32.5,19.9,32,20.2,31.4,20.7z"/>
	<path class="st0" d="M12.6,21.8c-0.9-0.2-1.5-0.7-2-1.1l0.1,0.1C11.3,21.2,11.8,21.6,12.6,21.8z"/>
	<path class="st0" d="M21.3,21.8c0,0-0.1,0-0.1,0c0,0,0,0,0,0C21.2,21.8,21.2,21.8,21.3,21.8z"/>
	<path class="st0" d="M15.5,20.8c-0.6,0.5-1.3,1.1-2.3,1.1c0,0,0,0,0.1,0c1.2,0,2-0.7,2.5-1.2c0.6-0.5,1.1-0.8,1.4-0.8
		C16.7,19.9,16.3,20.2,15.5,20.8L15.5,20.8z"/>
	<path class="st0" d="M23.6,20.7c-0.5,0.4-1.1,0.9-2,1.1C22.4,21.6,23,21.2,23.6,20.7L23.6,20.7c0.6-0.4,1.1-0.7,1.5-0.8
		c0,0-0.1,0-0.1,0C24.7,19.9,24.2,20.2,23.6,20.7z"/>
	<path class="st0" d="M37.4,25.9c0,0-0.7-0.5-1.5-1.1l-0.2-0.1c-0.9-0.5-1.8-1-2.8-1c0,0,0,0-0.1,0c0,0,0,0,0,0
		c-1.2,0-2,0.7-2.5,1.2c-0.6,0.5-1,0.8-1.3,0.8c-0.1,0-0.1,0-0.2,0c0,0,0,0,0,0c0,0-0.1,0-0.1,0c-0.3-0.1-0.6-0.4-1.1-0.7
		c-0.6-0.5-1.4-1.2-2.5-1.2s-2,0.7-2.5,1.2c-0.6,0.5-1.1,0.8-1.4,0.8s-0.7-0.3-1.4-0.8c-0.7-0.5-1.4-1.2-2.5-1.2
		c-1.2,0-2,0.7-2.5,1.2c-0.6,0.5-1.1,0.8-1.4,0.8s-0.8-0.3-1.4-0.8c-0.6-0.5-1.4-1.2-2.5-1.2s-2,0.7-2.5,1.2
		c-0.6,0.5-1.1,0.8-1.4,0.8c-0.3,0-1.3-0.4-2-0.8s-1.3-0.9-1.3-0.9c-0.3-0.3-0.5-0.3-0.7-0.3c-0.6,0-1,0.5-1,1c0,0,0,0,0,0
		c0,0,0,0.1,0,0.1c0,0,0,0,0,0c0,0,0,0,0,0.1c0,0,0,0,0,0c0,0,0,0.1,0,0.1c0,0,0,0,0,0.1c0,0.2,0.1,0.4,0.3,0.5c0,0,0.7,0.5,1.5,1.1
		l0.2,0.1c0.9,0.5,1.8,1,2.8,1c0,0,0,0,0.1,0c0,0,0,0,0,0c1.2,0,2-0.7,2.5-1.2c0.6-0.5,1-0.8,1.3-0.8c0.1,0,0.1,0,0.2,0c0,0,0,0,0,0
		c0,0,0.1,0,0.1,0c0.3,0.1,0.6,0.4,1.1,0.7c0.6,0.5,1.4,1.2,2.5,1.2s2-0.7,2.5-1.2c0.6-0.5,1.1-0.8,1.4-0.8s0.8,0.3,1.4,0.8
		c0.6,0.5,1.4,1.2,2.5,1.2s2-0.7,2.5-1.2c0.6-0.5,1.1-0.8,1.4-0.8s0.8,0.3,1.4,0.8c0.6,0.5,1.4,1.2,2.5,1.2s2-0.7,2.5-1.2
		c0,0,0,0,0,0h0c-0.6,0.5-1.3,1.1-2.4,1.1c0,0-0.1,0-0.1,0c1,0,1.8-0.6,2.4-1.3c0.7-0.5,1.2-0.8,1.5-0.8c0.3,0,1,0.3,1.7,0.6
		c-0.6-0.3-1.2-0.5-1.5-0.5c-0.1,0-0.3,0.1-0.5,0.1c0.1,0,0.1,0,0.2,0c0.3,0,1.3,0.4,2,0.8c0.8,0.5,1.3,0.9,1.3,0.9
		c0.2,0.2,0.4,0.3,0.6,0.3c0.3,0,0.6-0.1,0.8-0.4c0,0,0,0,0,0c-0.1,0.1-0.3,0.2-0.5,0.2c-0.2,0-0.3-0.1-0.5-0.2c0,0,0,0,0,0
		c0.1,0.1,0.3,0.1,0.4,0.1c0.3,0,0.5-0.1,0.7-0.3c0,0,0.1-0.1,0.1-0.2c0,0.1-0.1,0.3-0.2,0.4c0,0,0.1-0.1,0.1-0.1
		c0.2-0.2,0.2-0.4,0.2-0.5c0,0,0,0,0,0c0-0.1,0-0.1,0-0.2C37.7,26.2,37.6,26,37.4,25.9z M5.3,25.9c-0.4,0-1.4-0.4-2.1-0.8
		S2,24.3,2,24.3c0,0,0,0,0,0c0,0,0,0,0,0c0,0,0.6,0.5,1.3,0.9S4.9,25.9,5.3,25.9C5.3,25.9,5.3,25.9,5.3,25.9
		C5.3,25.9,5.3,25.9,5.3,25.9z M6.8,25.2c-0.1,0-0.1,0.1-0.2,0.1C6.7,25.2,6.8,25.1,6.8,25.2l0.1-0.1C6.8,25.1,6.8,25.1,6.8,25.2z
		 M13,27.6c-1.1,0-1.8-0.6-2.4-1.1l-0.1-0.1l0.2,0.1C11.3,27,12.1,27.6,13,27.6C13.1,27.6,13.1,27.6,13,27.6z M13.1,25.9
		c-0.3,0-0.8-0.3-1.5-0.9c-0.6-0.5-1.3-1.1-2.4-1.1c0,0,0,0,0,0c1.1,0,1.8,0.6,2.4,1.1h0.1C12.4,25.6,12.8,25.9,13.1,25.9
		C13.2,25.9,13.2,25.9,13.1,25.9z M17.1,25.7C17.1,25.7,17.1,25.7,17.1,25.7c0.3,0,0.8,0.3,1.5,0.8C17.9,26,17.5,25.7,17.1,25.7z
		 M19.7,25.2c0,0-0.4-0.2-0.5-0.3c-0.6-0.4-1.1-0.8-2-0.9c0.1,0,0.1,0,0.1,0c0.9,0,1.5,0.5,2.1,0.9C19.5,25,19.6,25.1,19.7,25.2
		L19.7,25.2c0.5,0.3,0.8,0.5,1,0.6C20.4,25.7,20.1,25.5,19.7,25.2z M23.5,26.5L23.5,26.5c-0.6,0.4-1.1,0.8-1.9,1
		C22.4,27.3,23,26.8,23.5,26.5c0.7-0.6,1.2-0.9,1.5-0.9c0,0,0,0,0,0C24.6,25.7,24.2,26,23.5,26.5z"/>
	<path class="st0" d="M31.5,26.5c0.4-0.4,0.8-0.6,1.1-0.7C32.3,25.9,31.9,26.1,31.5,26.5L31.5,26.5z"/>
</g>
</svg>
