<?xml version="1.0" encoding="utf-8"?>
<!-- Generator: Adobe Illustrator 21.1.0, SVG Export Plug-In . SVG Version: 6.00 Build 0)  -->
<svg version="1.1" id="Layer_1" xmlns="http://www.w3.org/2000/svg" xmlns:xlink="http://www.w3.org/1999/xlink" x="0px" y="0px"
	 width="57px" height="51.7px" viewBox="0 0 57 51.7" style="enable-background:new 0 0 57 51.7;" xml:space="preserve">
<style type="text/css">
	.st0{fill:#C7E7F9;}
</style>
<g>
	<path class="st0" d="M4.5,51.7h39.4c0-1.2,0-2.4,0-3.6H4.5C4.5,49.3,4.5,50.5,4.5,51.7z"/>
	<path class="st0" d="M20.7,26c0,0.9,0.1,0.9,0.8,1.3c0.2,0.1,0.5,0.3,0.9,0.4v-4c-0.3,0.1-0.6,0.3-0.8,0.5
		C21,24.7,20.7,25.2,20.7,26z"/>
	<path class="st0" d="M25.7,36.6c0.3-0.1,0.6-0.3,0.8-0.5c0.5-0.4,0.8-0.9,0.8-1.7c0-0.9-0.1-1-0.8-1.4c-0.2-0.1-0.5-0.3-0.9-0.4v4
		H25.7z"/>
	<path class="st0" d="M52.2,34.7c-1.1-4.7-3-9.9-3.9-14.9h1.9v-8.2h-2.1c-0.1-2.1,0-4.5-2.3-5.8c-1.1-0.5-1.5-0.8-2.4-1.3L42.6,6
		c0.8,0.4,1.3,0.7,2.2,1.2c1.1,0.5,1.5,2.3,1.4,4.4h-3.3v8.2h3.9c0.9,5.1,2.7,10.1,3.8,15c0.6,2.6,0.6,9.9-3.1,5.9
		c-1.7-1.4-3.3-3.5-3.4-8.2c0-2.4,0-4.7,0-7.1h-5.3V2.3c0-1.3-1-2.3-2.3-2.3H11.9c-1.3,0-2.3,1-2.3,2.3v41.6c0,1.3,1,2.3,2.3,2.3
		h24.6c1.3,0,2.3-1,2.3-2.3V32.5h3.6c0,4.3,1.9,7.8,4,9.5C52.1,46.8,53.2,39.4,52.2,34.7z M28.3,30.2c1.2,0.8,2.4,2.3,2.4,4.2
		c0,1.7-0.8,3.3-2.1,4.3c-0.8,0.7-1.8,1.1-2.9,1.4v1c0,0.9-0.7,1.7-1.7,1.7c-0.9,0-1.7-0.7-1.7-1.7v-1c-2.2-0.5-3.9-1.9-4.8-3.4
		c-0.5-0.8-0.2-1.8,0.6-2.3c0.8-0.5,1.8-0.2,2.3,0.6c0.3,0.6,1,1.2,1.9,1.6v-5.1c-0.9-0.3-1.7-0.6-2.6-1.2c-1.2-0.8-2.4-2.3-2.4-4.2
		c0-1.7,0.8-3.3,2.1-4.3c0.8-0.7,1.8-1.1,2.9-1.3v-1c0-0.9,0.7-1.7,1.7-1.7c0.9,0,1.7,0.7,1.7,1.7v1c2.2,0.5,3.9,1.9,4.8,3.4
		c0.5,0.8,0.2,1.8-0.6,2.3c-0.8,0.5-1.8,0.2-2.3-0.6l0,0c-0.3-0.6-1-1.2-1.9-1.6v5C26.5,29.3,27.4,29.6,28.3,30.2z M33.5,18h-4.3
		c-0.4-1.8-1.7-3.2-3.4-3.8L28,9.1c0.2-0.5,0-1.1-0.5-1.3s-1.1,0-1.3,0.5l-2.4,5.5c-2.5,0-4.7,1.8-5.2,4.2h-4.1V3.5h19.1V18H33.5z"
		/>
</g>
</svg>
