<?xml version="1.0" encoding="utf-8"?>
<!-- Generator: Adobe Illustrator 21.1.0, SVG Export Plug-In . SVG Version: 6.00 Build 0)  -->
<svg version="1.1" id="Layer_1" xmlns="http://www.w3.org/2000/svg" xmlns:xlink="http://www.w3.org/1999/xlink" x="0px" y="0px"
	 width="57px" height="51.7px" viewBox="0 0 57 51.7" style="enable-background:new 0 0 57 51.7;" xml:space="preserve">
<style type="text/css">
	.st0{fill:#C7E7F9;}
	.st1{fill:#FFFFFF;}
</style>
<g>
	<g>
		<path class="st0" d="M8,43.5c-2.1,0-3.8-1.7-3.8-3.8s1.7-3.8,3.8-3.8s3.8,1.8,3.8,3.8C11.9,41.8,10.1,43.5,8,43.5z M52.8,25.9
			c0-3.9-2.2-7.5-5.7-9.2v-0.1c0-5.6-4.6-10.2-10.2-10.2c-2.1,0-4.2,0.7-5.9,1.9c-1.7-1.2-3.8-1.9-5.8-1.9
			c-5.6,0-10.2,4.6-10.2,10.2v0.1c-3.5,1.7-5.7,5.2-5.7,9.2s2.2,7.5,5.7,9.1v0.1c0,5.6,4.6,10.2,10.2,10.2c2.1,0,4.2-0.7,5.9-1.9
			c1.7,1.2,3.8,1.9,5.9,1.9c5.6,0,10.2-4.6,10.2-10.2V35C50.6,33.3,52.8,29.8,52.8,25.9z"/>
	</g>
	<g>
		<path class="st1" d="M15,24.4l-0.1-0.2c0.1-0.4,0.3-0.9,0.5-1.6c0.3-0.7,0.5-1.3,0.8-1.9h0.9c-0.3,1.2-0.6,2.5-0.8,3.7H15z
			 M17.7,24.4l-0.1-0.2c0.3-1,0.7-2.2,1.3-3.5h0.9c-0.2,0.6-0.3,1.2-0.4,1.9c-0.2,0.7-0.3,1.3-0.3,1.8H17.7z"/>
		<path class="st1" d="M21,29.9c0-0.7,0.2-1.1,0.4-1.5s0.7-0.5,1.3-0.5s1,0.2,1.3,0.5c0.3,0.3,0.5,0.9,0.5,1.5S24.3,31,24,31.4
			c-0.3,0.3-0.8,0.5-1.3,0.5s-0.9-0.2-1.2-0.4C21.1,31.1,21,30.6,21,29.9z"/>
		<path class="st1" d="M28.4,29.9c0-0.7,0.2-1.1,0.4-1.5c0.3-0.3,0.7-0.5,1.3-0.5c0.6,0,1,0.2,1.3,0.5c0.3,0.3,0.5,0.9,0.5,1.5
			s-0.2,1.1-0.5,1.5s-0.8,0.5-1.3,0.5c-0.5,0-0.9-0.2-1.2-0.4C28.6,31.1,28.4,30.6,28.4,29.9z"/>
		<path class="st1" d="M35.9,29.9c0-0.7,0.2-1.1,0.4-1.5c0.3-0.3,0.7-0.5,1.3-0.5s1,0.2,1.3,0.5c0.3,0.3,0.5,0.9,0.5,1.5
			s-0.2,1.1-0.5,1.5c-0.3,0.3-0.8,0.5-1.3,0.5s-0.9-0.2-1.2-0.4C36.1,31.1,35.9,30.6,35.9,29.9z"/>
		<path class="st1" d="M44,20.8l0.1,0.2c-0.1,0.5-0.3,1-0.5,1.7c-0.3,0.7-0.5,1.3-0.8,1.8h-0.9c0.3-1.4,0.6-2.6,0.8-3.7
			C42.7,20.8,44,20.8,44,20.8z M46.6,20.8l0.1,0.2c-0.1,0.4-0.3,1-0.5,1.6c-0.3,0.6-0.5,1.3-0.8,1.9h-0.9c0.1-0.5,0.3-1.1,0.4-1.9
			c0.2-0.8,0.3-1.4,0.3-1.8H46.6z"/>
	</g>
</g>
</svg>
