<?xml version="1.0" encoding="utf-8"?>
<!-- Generator: Adobe Illustrator 21.1.0, SVG Export Plug-In . SVG Version: 6.00 Build 0)  -->
<svg version="1.1" id="Layer_1" xmlns="http://www.w3.org/2000/svg" xmlns:xlink="http://www.w3.org/1999/xlink" x="0px" y="0px"
	 width="57px" height="51.7px" viewBox="0 0 57 51.7" style="enable-background:new 0 0 57 51.7;" xml:space="preserve">
<style type="text/css">
	.st0{fill:#C7E7F9;}
</style>
<g>
	<path class="st0" d="M53.3,34.1H24.8h-9.1c-2.1,0-4.1-0.8-5.7-2.3l-4.6-4.6c-0.4-0.4-0.9-0.7-1.5-0.8c-0.5-0.1-1.1-0.1-1.6,0
		s-1,0.4-1.5,0.8c-0.6,0.6-1,1.5-1,2.3v10.2C0,41.5,1.5,43,3.4,43c0,0,7.1,0.1,7.6,0.1V49c0,1.3,1,2.3,2.3,2.3s2.4-1.1,2.4-2.3v-5.8
		h22.6V49c0,1.3,1,2.3,2.3,2.3s2.4-1,2.4-2.3v-5.8h10.4c1.8,0,3.2-1.7,3.2-4.6C56.6,36.1,55.1,34.1,53.3,34.1z"/>
	<g>
		<g>
			<path class="st0" d="M47,22.1c-1.2-0.3-2.5,0.5-2.7,1.7l-0.4,1.7c-0.2,0.8-0.9,1.4-1.7,1.4h-3.8c-0.5,0-1.1-0.1-1.8-0.4
				c-5.5-2.4-11.1-3.6-16.5-3.6h-2c-1.2,0-2.3,0.5-3.1,1.3s-1.3,2-1.3,3.1c0,2.4,2,4.4,4.4,4.4h26.3c0.2,0,0.4,0,0.6,0
				c0.8-0.1,1.6-0.5,2.3-1.1l0.1-0.1l0.7-2.9l0.6-2.8c0-0.2,0.1-0.3,0.1-0.5C48.8,23.3,48.1,22.3,47,22.1z"/>
			<path class="st0" d="M9.8,17.1c-2.4,0-4.3,1.9-4.3,4.3s1.9,4.3,4.3,4.3s4.3-1.9,4.3-4.3S12.2,17.1,9.8,17.1z"/>
		</g>
	</g>
	<path class="st0" d="M41.1,4c0-2.4-1.9-4-4-4C31.5,0.1,29.6,0.1,24,0c-2.2,0-4,1.6-4,4c0,3.7,0,7.3,0,11c0,2.2,1.6,3.8,3.8,3.8
		c2.9,0,5.7,0,8.6,0c2.8,0,1.9,0,4.7,0c2.3,0,3.8-1.6,3.8-3.9C41.1,11.3,41.1,7.6,41.1,4z M37.2,11.1h-4.8v4.8h-3.5v-4.8H24V7.6h4.7
		V2.8h3.6v4.8h4.8v3.5H37.2z"/>
</g>
</svg>
