<?xml version="1.0" encoding="utf-8"?>
<!-- Generator: Adobe Illustrator 21.1.0, SVG Export Plug-In . SVG Version: 6.00 Build 0)  -->
<svg version="1.1" id="Layer_1" xmlns="http://www.w3.org/2000/svg" xmlns:xlink="http://www.w3.org/1999/xlink" x="0px" y="0px"
	 width="57px" height="51.7px" viewBox="0 0 57 51.7" style="enable-background:new 0 0 57 51.7;" xml:space="preserve">
<style type="text/css">
	.st0{fill:#C7E7F9;}
</style>
<g>
	<path class="st0" d="M28.5,49.5H9.7c-0.7,0-1.1,0.5-1.1,1.1c0,0.7,0.5,1.1,1.1,1.1h18.8c0.7,0,1.1-0.5,1.1-1.1
		C29.6,50.1,29,49.5,28.5,49.5z"/>
	<path class="st0" d="M1.5,23.5l7.6-3.1c0.6-0.2,0.8-0.9,0.7-1.5c-0.2-0.6-0.9-0.8-1.5-0.7l-7.5,3.1c-0.6,0.2-0.8,0.9-0.7,1.5
		c0.2,0.4,0.6,0.7,1.1,0.7C1.2,23.5,1.4,23.5,1.5,23.5z"/>
	<path class="st0" d="M41.9,44H3.6c-0.7,0-1.1,0.5-1.1,1.1c0,0.7,0.5,1.1,1.1,1.1H42c0.7,0,1.1-0.5,1.1-1.1
		C43.1,44.4,42.6,44,41.9,44z"/>
	<path class="st0" d="M56.6,12.5l-0.3-0.7c-0.6-1.3-1.7-2.3-3.1-2.7c-2.3-0.8-5.5-0.4-9.1,1.4H44l-14,7.7l-13.5-7.3
		c-0.3-0.2-0.7-0.2-1,0l-6,2.8c-0.4,0.2-0.6,0.5-0.7,0.9c-0.1,0.4,0.1,0.8,0.4,1L20,23.7l-9.2,5L6,26.1c-0.3-0.2-0.7-0.2-1,0L0.9,28
		c-0.4,0.2-0.6,0.5-0.7,0.9s0.1,0.8,0.4,1l8.7,6.7c0.8,0.7,1.8,1,2.8,1c0.7,0,1.3-0.1,2-0.4l4.5-2.1l35.6-17
		c1.1-0.5,1.9-1.3,2.3-2.3C57.1,14.7,57.1,13.6,56.6,12.5z"/>
	<path class="st0" d="M51.7,44h-4.1c-0.7,0-1.1,0.5-1.1,1.1c0,0.7,0.5,1.1,1.1,1.1h4.1c0.7,0,1.1-0.5,1.1-1.1
		C52.9,44.4,52.4,44,51.7,44z"/>
</g>
</svg>
