<?xml version="1.0" encoding="utf-8"?>
<!-- Generator: Adobe Illustrator 21.1.0, SVG Export Plug-In . SVG Version: 6.00 Build 0)  -->
<svg version="1.1" id="Layer_1" xmlns="http://www.w3.org/2000/svg" xmlns:xlink="http://www.w3.org/1999/xlink" x="0px" y="0px"
	 width="57px" height="51.7px" viewBox="0 0 57 51.7" style="enable-background:new 0 0 57 51.7;" xml:space="preserve">
<style type="text/css">
	.st0{fill:#C7E7F9;}
</style>
<g>
	<g>
		<path class="st0" d="M40.8,33.9c0.7-0.3,1.7-0.3,2.8-0.3c0.5-0.4,3.3-2.7,4.6-3.6c-4.2-2-7.8,2-9.5,3.4
			C39.2,33.5,40.2,33.7,40.8,33.9z"/>
		<path class="st0" d="M42.2,34.5c0.9,0.5,1.9,1.7,1.5,3.4c1.4-0.2,2.8-0.6,3.8-1.4c3.6-3.3,5.1-3.9,8.6-3c0.8-1.3,0.1-2.9-0.7-3.4
			c-4.3-2.1-11.4,4-11.4,4C43.9,34.2,43.3,34.4,42.2,34.5z"/>
		<path class="st0" d="M15.5,28.1H1.4c-0.4,0-0.8,0.4-0.8,0.8v20.6c0,0.4,0.4,0.8,0.8,0.8h14.1c0.4,0,0.8-0.4,0.8-0.8V28.9
			C16.3,28.5,15.9,28.1,15.5,28.1z M10.3,50H9.8V28.4h0.5V50z"/>
		<path class="st0" d="M55.7,34.1c-2.5-1-4.4,0.7-7.8,3.3c-4.8,3.8-14.5,3.9-14.5,3.9l0.1-0.8c0,0,9-0.2,9.6-2.6
			c0.4-1.7-0.7-3.4-5-3.9c-5.6-0.1-10.4-4-15.9-4.7c-3.2-0.4-3.7-0.2-4.9-0.1v18.9c2.5,0,14.5,0,16.8-0.1c7.5-0.2,15.2-4,19.4-7.2
			C56.4,38.6,57.2,34.7,55.7,34.1z"/>
		<path class="st0" d="M42.6,36L42.6,36L42.6,36L42.6,36z"/>
	</g>
	<g transform="translate(0,-992.36218)">
		<path class="st0" d="M28.5,992.4c-7.9,0-14.3,6.4-14.3,14.3c0,7.9,6.4,14.3,14.3,14.3s14.3-6.4,14.3-14.3
			C42.9,998.8,36.4,992.4,28.5,992.4z M28.5,996.5c0.8,0,1.4,0.6,1.4,1.4v0.9c1.8,0.4,3.2,1.5,3.9,2.8c0.4,0.6,0.2,1.5-0.5,1.9
			c-0.6,0.4-1.5,0.2-1.9-0.5l0,0c-0.3-0.5-0.8-1-1.6-1.3v4.2c0.7,0.2,1.4,0.5,2.2,1c1,0.6,1.9,1.9,1.9,3.4c0,1.4-0.7,2.7-1.7,3.5
			c-0.7,0.6-1.5,0.9-2.4,1.1v0.8c0,0.8-0.6,1.4-1.4,1.4s-1.4-0.6-1.4-1.4v-0.9c-1.8-0.4-3.2-1.5-3.9-2.8c-0.4-0.6-0.2-1.5,0.5-1.9
			c0.6-0.4,1.5-0.2,1.9,0.5c0.3,0.5,0.8,1,1.6,1.3v-4.2c-0.7-0.2-1.4-0.5-2.2-1c-1-0.6-1.9-1.9-1.9-3.4c0-1.4,0.7-2.7,1.7-3.6
			c0.7-0.6,1.5-0.9,2.4-1.1v-0.8C27.2,997.1,27.8,996.5,28.5,996.5z M27.2,1001.5c-0.3,0.1-0.5,0.2-0.7,0.4
			c-0.4,0.4-0.7,0.8-0.7,1.4c0,0.7,0.1,0.8,0.6,1.1c0.2,0.1,0.4,0.2,0.7,0.3v-3.2H27.2z M29.9,1008.7v3.2c0.3-0.1,0.5-0.2,0.7-0.4
			c0.4-0.4,0.7-0.8,0.7-1.4c0-0.7-0.1-0.8-0.6-1.1C30.4,1008.9,30.2,1008.8,29.9,1008.7z"/>
	</g>
</g>
</svg>
