<?xml version="1.0" encoding="utf-8"?>
<!-- Generator: Adobe Illustrator 21.1.0, SVG Export Plug-In . SVG Version: 6.00 Build 0)  -->
<svg version="1.1" id="Layer_1" xmlns="http://www.w3.org/2000/svg" xmlns:xlink="http://www.w3.org/1999/xlink" x="0px" y="0px"
	 width="45px" height="45px" viewBox="0 0 45 45" style="enable-background:new 0 0 45 45;" xml:space="preserve">
<style type="text/css">
	.st0{fill:#217DD8;}
	.st1{fill:#FFFFFF;}
</style>
<g>
	<circle class="st0" cx="22.5" cy="22.5" r="22.5"/>
	<path class="st1" d="M36.2,13.3c-0.6-1.6-2.1-2.7-3.8-2.7l0,0c-0.5,0-0.9,0.1-1.4,0.2c-2.1,0.8-3.2,3.1-2.4,5.2
		c0.1,0.2,0.1,0.3,0.2,0.5L26,18.9c-0.9-0.7-1.9-1.2-3.1-1.3l-0.2-3.7c0.1,0,0.1,0,0.2-0.1c2.1-0.8,3.2-3.1,2.4-5.2
		c-0.4-1.5-2-2.6-3.7-2.6l0,0c-0.5,0-0.9,0.1-1.4,0.2C18.1,7,17,9.3,17.8,11.4c0.5,1.3,1.6,2.3,3,2.6l0.2,3.7
		c-0.3,0.1-0.5,0.1-0.8,0.2c-1.5,0.5-2.7,1.7-3.4,3.1c-0.2,0.4-0.4,0.9-0.5,1.4l-3.7-0.1c0-0.2-0.1-0.3-0.1-0.5
		c-0.6-1.6-2.1-2.7-3.8-2.7l0,0c-0.5,0-0.9,0.1-1.4,0.2c-2.1,0.8-3.2,3.1-2.4,5.2c0.6,1.6,2.1,2.7,3.8,2.7c0.5,0,0.9-0.1,1.4-0.2
		c1.3-0.5,2.1-1.5,2.5-2.7l3.7,0.1c0.1,0.4,0.2,0.8,0.3,1.3c0.3,0.8,0.7,1.4,1.2,2l-1,1.3c-0.5-0.2-1.1-0.4-1.6-0.4
		s-0.9,0.1-1.4,0.2c-2.1,0.8-3.2,3.1-2.4,5.2c0.6,1.6,2.1,2.7,3.8,2.7c0.5,0,0.9-0.1,1.4-0.2c2.1-0.8,3.2-3.1,2.4-5.2
		c-0.1-0.4-0.3-0.8-0.6-1.1l1-1.3c0.9,0.5,1.9,0.8,2.9,0.8c0.7,0,1.4-0.1,2.1-0.4c0.5-0.2,0.9-0.4,1.3-0.7l2,2.1
		c-0.7,1-0.9,2.3-0.4,3.5c0.6,1.6,2.1,2.7,3.8,2.7c0.5,0,0.9-0.1,1.4-0.2c2.1-0.8,3.2-3.1,2.4-5.2c-0.6-1.6-2.1-2.7-3.8-2.7
		c-0.5,0-0.9,0.1-1.4,0.2c-0.2,0.1-0.4,0.2-0.6,0.3l-2-2.1c0.3-0.3,0.5-0.7,0.7-1.1c0.7-1.5,0.8-3.1,0.2-4.6
		c-0.1-0.4-0.4-0.8-0.6-1.2l2.8-2.4c0.7,0.4,1.4,0.7,2.3,0.7c0.5,0,0.9-0.1,1.4-0.2c1-0.4,1.8-1.1,2.3-2.1
		C36.5,15.4,36.5,14.3,36.2,13.3z M17,32c0.4,1.1-0.2,2.2-1.2,2.6c-0.2,0.1-0.5,0.1-0.7,0.1c-0.8,0-1.6-0.5-1.9-1.3
		c-0.4-1.1,0.2-2.2,1.2-2.6c0.2-0.1,0.5-0.1,0.7-0.1c0.1,0,0.2,0,0.3,0C16,30.8,16.6,31.2,17,32C16.9,31.9,17,31.9,17,32z
		 M30.2,31.1c0.1,0,0.1,0,0.2-0.1c0.2,0,0.3-0.1,0.5-0.1c0.8,0,1.6,0.5,1.9,1.3c0.4,1.1-0.2,2.2-1.2,2.6C31.4,35,31.1,35,30.9,35
		c-0.8,0-1.6-0.5-1.9-1.3c-0.2-0.4-0.1-0.9,0-1.3C29.2,31.8,29.6,31.3,30.2,31.1z M20.7,11.8c-0.4-0.2-0.8-0.6-1-1.1
		c-0.4-1.1,0.2-2.2,1.2-2.6C21.2,8,21.4,8,21.6,8c0.8,0,1.6,0.5,1.9,1.3c0.3,0.9,0,1.9-0.8,2.4c-0.1,0.1-0.2,0.1-0.4,0.2
		C22.1,12,21.8,12,21.6,12C21.3,12.1,21,12,20.7,11.8z M9.3,25.1c-0.2,0.1-0.5,0.1-0.7,0.1c-0.8,0-1.6-0.5-1.9-1.3
		c-0.4-1.1,0.2-2.2,1.2-2.6c0.2-0.1,0.5-0.1,0.7-0.1c0.7,0,1.4,0.4,1.8,1.1c0,0.1,0.1,0.2,0.1,0.3c0.2,0.6,0.1,1.2-0.2,1.7
		C10.1,24.6,9.8,24.9,9.3,25.1z M26,22.2c0.4,1.2,0.2,2.5-0.4,3.6c-0.4,0.6-0.9,1-1.5,1.4c-0.2,0.1-0.4,0.2-0.6,0.3
		c-0.5,0.2-0.9,0.2-1.4,0.2c-0.6,0-1.1-0.1-1.7-0.4s-1.2-0.7-1.6-1.2c-0.2-0.3-0.5-0.7-0.6-1.1c-0.1-0.2-0.1-0.3-0.1-0.5
		c-0.1-0.7-0.1-1.4,0.1-2c0.4-1.2,1.2-2.2,2.5-2.7c0.1,0,0.1,0,0.2-0.1c0.4-0.1,0.8-0.2,1.2-0.2c0.3,0,0.6,0,0.8,0.1
		c0.5,0.1,1,0.3,1.5,0.6c0.5,0.4,1,0.9,1.3,1.5C25.9,21.9,26,22.1,26,22.2z M33,16.5c-0.2,0.1-0.5,0.1-0.7,0.1s-0.4,0-0.7-0.1
		c-0.6-0.2-1-0.6-1.3-1.2c0-0.1,0-0.2-0.1-0.3c-0.2-1,0.3-2,1.3-2.3c0.2-0.1,0.5-0.1,0.7-0.1c0.8,0,1.6,0.5,1.9,1.3
		C34.6,15,34.1,16.2,33,16.5z"/>
</g>
</svg>
