<?xml version="1.0" encoding="utf-8"?>
<!-- Generator: Adobe Illustrator 21.1.0, SVG Export Plug-In . SVG Version: 6.00 Build 0)  -->
<svg version="1.1" id="Layer_1" xmlns="http://www.w3.org/2000/svg" xmlns:xlink="http://www.w3.org/1999/xlink" x="0px" y="0px"
	 width="57px" height="51.7px" viewBox="0 0 57 51.7" style="enable-background:new 0 0 57 51.7;" xml:space="preserve">
<style type="text/css">
	.st0{fill:#C7E7F9;}
</style>
<g>
	<path class="st0" d="M27.5,17.1c0,1.6-1.5,3.4-3.4,3.4v27.7c0,3.9-5.4,3.9-5.4,0V20.5c-1.9,0-3.5-1.5-3.5-3.6V1.6
		c0-1.3,1.9-1.4,1.9,0.1V13h1.6V1.6c0-1.2,1.8-1.3,1.9,0.1V13h1.6V1.6c0-1.3,1.8-1.3,1.8,0.1V13h1.6V1.6c0-1.3,1.9-1.3,1.9,0.1V17.1
		L27.5,17.1z"/>
	<path class="st0" d="M41.8,5.2v43c0,3.8-5.4,3.8-5.4,0V31.1h-2.9v-26C33.6-0.9,41.8-0.9,41.8,5.2L41.8,5.2z"/>
</g>
</svg>
