<?xml version="1.0" encoding="utf-8"?>
<!-- Generator: Adobe Illustrator 21.1.0, SVG Export Plug-In . SVG Version: 6.00 Build 0)  -->
<svg version="1.1" id="Layer_1" xmlns="http://www.w3.org/2000/svg" xmlns:xlink="http://www.w3.org/1999/xlink" x="0px" y="0px"
	 width="57px" height="51.7px" viewBox="0 0 57 51.7" style="enable-background:new 0 0 57 51.7;" xml:space="preserve">
<style type="text/css">
	.st0{fill:#C7E7F9;}
</style>
<g>
	<circle class="st0" cx="11.9" cy="18.4" r="1.8"/>
	<circle class="st0" cx="3.4" cy="26.2" r="1.2"/>
	<path class="st0" d="M1.6,28c0.4,0,2.9,0,3.3,0c0,0,0.9,0,1.1,0c0.2-0.6,1.5-4.7,1.9-6.1c0-0.1,0.1-0.1,0.1-0.2l0.1-0.1
		c0.3-0.4,0.9-0.7,1.6-0.7h4.6c1.5,0,2.2,1.2,2.2,2.2v5.7c0,0.4-0.3,0.8-0.8,0.8c-0.4,0-0.8-0.3-0.8-0.8v-5.4h-0.6v14.3
		c0,0.6-0.5,1.1-1.1,1.1s-1.1-0.5-1.1-1.1v-8.2h-0.6v8.2c0,0.6-0.5,1.1-1.1,1.1s-1.1-0.5-1.1-1.1V23.4H9.1c-0.5,1.7-1.1,3.3-1.6,5
		c-0.1,0.3-0.3,0.4-0.5,0.5l0,0l-2,0.6c0,1.3,0,8,0,8.6c0,0.4-0.3,0.7-0.7,0.7c-0.4,0-0.7-0.3-0.7-0.7c0-0.6,0-4.3,0-4.3H3.1
		c0,0,0,3.7,0,4.3c0,0.4-0.3,0.7-0.7,0.7S1.6,38.4,1.6,38c0-0.6,0-8,0-8H1.1c0,0,0,2.4,0,2.7s-0.2,0.5-0.5,0.5C0.2,33.2,0,33,0,32.7
		s0-2.6,0-3.1C0,28.7,0.8,28,1.6,28z"/>
	<circle class="st0" cx="40.5" cy="17" r="1.8"/>
	<polygon class="st0" points="16.5,43.1 16.5,38.7 0,38.7 0,41.1 0,41.9 0,46.2 13.3,46.2 14.5,46.2 57,46.2 57,43.1 	"/>
	<g>
		<path class="st0" d="M33.6,5.5c0.1,0,0.1,0,0.2,0c0.1,0,0.1,0,0.2,0H33.6z"/>
		<path class="st0" d="M57,24.2l-2.3-2.3l0,0h-3.3l-2.3,2.3l0,0v-1.7L47.6,11c-0.4-2.1-1.7-2.9-3.7-3.7s-6.7-1.8-10.1-1.8
			c-3.5,0-8.2,1-10.1,1.8C21.7,8.1,20.4,9,20,11l-1.5,11.5v15.8H21v2.5c0,3,4.4,3,4.4,0v-2.5h8.5l0,0h8.2v2.5c0,3,4.4,3,4.4,0v-2.5
			h2.6V27.5l0,0l2.3,2.3l0,0h3.3l0,0l0,0l2.3-2.3V24.2L57,24.2z M27.4,8.4h6.5h6.2c1.2,0,1.2,1.9,0,1.9H34h-6.5
			C26.2,10.2,26.2,8.4,27.4,8.4z M23.2,33.4c-1.2,0-2.1-1-2.1-2.1c0-1.2,1-2.1,2.1-2.1c1.2,0,2.1,0.9,2.1,2.1
			C25.3,32.4,24.4,33.4,23.2,33.4z M38.3,19.6c-0.9,0-1.5,0.6-1.7,1.3l0,0h-2.4H22.7c-1.1,0-1.3-0.8-1.2-1.6l0.8-5.6
			c0.2-1,0.5-1.7,1.8-1.7h9.8h9.5c1.3,0,1.7,0.7,1.8,1.7l0.7,5.6c0.1,0.8-0.1,1.6-1.2,1.6h-0.4l0,0c-0.2-0.8-0.8-1.3-1.7-1.3H38.3z
			 M44.3,33.4c-1.2,0-2.1-1-2.1-2.1c0-1.2,1-2.1,2.1-2.1c1.2,0,2.1,0.9,2.1,2.1C46.4,32.4,45.5,33.4,44.3,33.4z"/>
	</g>
</g>
</svg>
