<?xml version="1.0" encoding="utf-8"?>
<!-- Generator: Adobe Illustrator 21.1.0, SVG Export Plug-In . SVG Version: 6.00 Build 0)  -->
<svg version="1.1" id="Layer_1" xmlns="http://www.w3.org/2000/svg" xmlns:xlink="http://www.w3.org/1999/xlink" x="0px" y="0px"
	 width="57px" height="51.7px" viewBox="0 0 57 51.7" style="enable-background:new 0 0 57 51.7;" xml:space="preserve">
<style type="text/css">
	.st0{fill:#C7E7F9;}
</style>
<g>
	<path class="st0" d="M6.4,18.4H4.8H1.8c-1,0-1.8,0.8-1.8,1.8v6.6c0,1,0.8,1.8,1.8,1.8h0.4v9.6c0,0.8,0.6,1.4,1.4,1.4h2.1
		c0.8,0,1.4-0.6,1.4-1.4v-8.4c-0.5-0.8-0.8-1.7-0.8-2.7C6.4,27.3,6.4,18.4,6.4,18.4z"/>
	<path class="st0" d="M4.8,12c-1.6,0-2.8,1.3-2.8,2.8c0,0.5,0.1,1,0.4,1.4c0.5,0.9,1.4,1.4,2.5,1.4c0.7,0,1.3-0.2,1.8-0.6
		c0.2-0.8,0.6-1.5,1.1-2.1c0,0,0-0.1,0-0.1C7.6,13.2,6.3,12,4.8,12z"/>
	<path class="st0" d="M55.2,18.4h-2.9h-1.7v8.8c0,1-0.3,1.9-0.8,2.7v8.4c0,0.8,0.6,1.4,1.4,1.4h2.1c0.8,0,1.4-0.6,1.4-1.4v-9.6h0.4
		c1,0,1.8-0.8,1.8-1.8v-6.6C57,19.3,56.2,18.4,55.2,18.4z"/>
	<path class="st0" d="M52.2,17.7c1.1,0,2-0.6,2.5-1.4c0.2-0.4,0.4-0.9,0.4-1.4c0-1.6-1.3-2.8-2.8-2.8c-1.6,0-2.8,1.3-2.8,2.8
		c0,0,0,0.1,0,0.1c0.5,0.6,0.9,1.3,1.1,2.1C51,17.4,51.6,17.7,52.2,17.7z"/>
	<path class="st0" d="M17.7,15.8c0-0.1,0-0.2,0-0.3h-2.5h-4.1c-1.4,0-2.6,1.1-2.6,2.6v9.2c0,1.4,1.1,2.6,2.6,2.6h0.6v13.5
		c0,1.1,0.9,2,2,2h3c1.1,0,2-0.9,2-2V30.9c-0.6-0.9-1-2-1-3.2V15.8z"/>
	<path class="st0" d="M15.3,6.4c-2.2,0-4,1.8-4,4c0,1.1,0.5,2.1,1.2,2.9c0.7,0.7,1.7,1.1,2.8,1.1c1.1,0,2.1-0.4,2.8-1.1
		c0.7-0.7,1.2-1.7,1.2-2.9C19.3,8.2,17.5,6.4,15.3,6.4z"/>
	<path class="st0" d="M45.8,15.5h-4.1h-2.5c0,0.1,0,0.2,0,0.3v11.9c0,1.2-0.4,2.3-1,3.2v12.4c0,1.1,0.9,2,2,2h3c1.1,0,2-0.9,2-2
		V29.8h0.6c1.4,0,2.6-1.1,2.6-2.6V18C48.4,16.6,47.2,15.5,45.8,15.5z"/>
	<path class="st0" d="M33.8,12.5h-5.3h-5.3c-1.8,0-3.3,1.5-3.3,3.3v11.9c0,1.8,1.5,3.3,3.3,3.3H24v17.3c0,1.4,1.1,2.5,2.5,2.5h3.9
		c1.4,0,2.5-1.1,2.5-2.5V31h0.8c1.8,0,3.3-1.5,3.3-3.3V15.8C37.1,14,35.6,12.5,33.8,12.5z"/>
	<path class="st0" d="M25.7,10.3c0.8,0.5,1.8,0.8,2.8,0.8c1,0,2-0.3,2.8-0.8c1.4-0.9,2.3-2.5,2.3-4.3c0-2.8-2.3-5.1-5.1-5.1
		c-2.8,0-5.1,2.3-5.1,5.1C23.4,7.8,24.3,9.4,25.7,10.3z"/>
	<path class="st0" d="M41.7,14.4c1.1,0,2.1-0.4,2.8-1.1c0.7-0.7,1.2-1.7,1.2-2.9c0-2.2-1.8-4-4-4c-2.2,0-4,1.8-4,4
		c0,1.1,0.5,2.1,1.2,2.9C39.7,14,40.6,14.4,41.7,14.4z"/>
</g>
</svg>
