<?xml version="1.0" encoding="utf-8"?>
<!-- Generator: Adobe Illustrator 21.1.0, SVG Export Plug-In . SVG Version: 6.00 Build 0)  -->
<svg version="1.1" id="Layer_1" xmlns="http://www.w3.org/2000/svg" xmlns:xlink="http://www.w3.org/1999/xlink" x="0px" y="0px"
	 width="57px" height="51.7px" viewBox="0 0 57 51.7" style="enable-background:new 0 0 57 51.7;" xml:space="preserve">
<style type="text/css">
	.st0{fill:#C7E7F9;}
</style>
<path class="st0" d="M22.1,49.1L22.1,49.1h-9.6c-1.8,0-3.2-1.4-3.2-3.2l0,0V30.2c0-1,0.4-1.9,1.2-2.5l16-13.1
	c0.6-0.4,1.3-0.7,2.1-0.7l0,0l0,0c0.7,0,1.4,0.3,2.1,0.7l16,13.1c0.7,0.6,1.2,1.5,1.2,2.5v15.7l0,0l0,0c0,1.8-1.4,3.2-3.2,3.2H35
	l0,0 M53.7,26.1c-0.4,0.4-0.7,0.5-1.2,0.5c-0.4,0-0.7-0.1-1.1-0.4l-23-19.8L5.6,26.3c-0.6,0.6-1.7,0.5-2.2-0.2
	c-0.5-0.6-0.5-1.7,0.2-2.2l0,0l0,0l9.1-7.8V7.5c0-0.9,0.4-1.7,0.9-2.2s1.3-0.9,2.2-0.9c1.8,0,3.2,1.4,3.2,3.2v3l8.5-7.5
	c0.6-0.5,1.5-0.5,2.1,0l24,20.8c0.5,0.5,0.7,1.3,0.4,2c0,0,0,0,0,0.1C53.8,26,53.8,26.1,53.7,26.1L53.7,26.1L53.7,26.1z"/>
</svg>
