<?xml version="1.0" encoding="utf-8"?>
<!-- Generator: Adobe Illustrator 21.1.0, SVG Export Plug-In . SVG Version: 6.00 Build 0)  -->
<svg version="1.1" id="Layer_1" xmlns="http://www.w3.org/2000/svg" xmlns:xlink="http://www.w3.org/1999/xlink" x="0px" y="0px"
	 width="57px" height="51.7px" viewBox="0 0 57 51.7" style="enable-background:new 0 0 57 51.7;" xml:space="preserve">
<style type="text/css">
	.st0{fill:#C7E7F9;}
</style>
<g>
	<g>
		<path class="st0" d="M12.1,21.2l0.3,2.3c10.3,4.5,22,4.5,32.3,0l0.3-2.3C34.5,16.5,22.6,16.5,12.1,21.2z"/>
	</g>
	<g>
		<path class="st0" d="M46.1,24.5c2.4,3.7,1.6,8.6-1.9,11.3c-1.8,6.9-6.9,12.5-13.6,15c-1.3,0.5-2.8,0.5-4.1,0
			c-6.7-2.5-11.8-8.1-13.6-15C9.5,33,8.7,28.2,11,24.5l2.3,1.4c-1.8,2.8-1,6.4,1.8,8.2c0.1,0,0.1,0.1,0.2,0.1
			c1.4,6.5,6,11.8,12.2,14.1c0.7,0.3,1.5,0.3,2.3,0C36,46,40.6,40.7,42,34.2c2.8-1.7,3.7-5.3,2.1-8.1c0-0.1-0.1-0.1-0.1-0.2
			L46.1,24.5z"/>
	</g>
	<g>
		<path class="st0" d="M29.7,31l1.9,2.3c1.8,2.3,5.2,2.7,7.5,0.9c2.2-1.8,2.7-5,1-7.3c-7.6,2.2-15.7,2.2-23.3,0
			c-1.8,2.4-1.3,5.7,1.1,7.5c2.3,1.7,5.6,1.3,7.4-1l1.9-2.3c0.1-0.1,0.2-0.2,0.3-0.3C28.1,30.2,29.1,30.3,29.7,31z"/>
	</g>
	<path class="st0" d="M48.1,13.3l-3.7,5.6c-10.1-4.3-21.6-4.3-31.7,0L9,13.3c0-0.1-0.1-0.2-0.1-0.2c-0.3-0.7,0.1-1.5,0.8-1.8
		c4.7-1.9,9.1-4.7,12.8-8.2c3.4-3.3,8.9-3.3,12.3,0c3.7,3.5,8,6.3,12.8,8.2c0.1,0,0.2,0.1,0.2,0.1C48.3,11.8,48.5,12.7,48.1,13.3z
		 M28.3,13.1c0.1,0.1,0.2,0.2,0.4,0.1c0.1-0.1,0.2-0.2,0.1-0.4l-0.1-0.1l1-1.7h2c0,0.2,0.1,0.3,0.3,0.3c0.1,0,0.3-0.1,0.3-0.3
		s-0.1-0.3-0.3-0.3c-0.1,0-0.1,0-0.1,0l-1-1.7l1-1.7c0.1,0.1,0.3,0,0.4-0.1s0-0.3-0.1-0.4s-0.3,0-0.4,0.1V7h-2l-1-1.7
		c0.1-0.1,0.2-0.2,0.1-0.4c-0.1-0.1-0.2-0.2-0.4-0.1c-0.1,0.1-0.2,0.2-0.1,0.4l0.1,0.1l-1,1.7h-2c0-0.2-0.1-0.3-0.3-0.3
		c-0.2,0-0.3,0.1-0.3,0.3c0,0.2,0.1,0.3,0.3,0.3h0.1l1,1.7l-1,1.7c-0.1-0.1-0.3,0-0.4,0.1s0,0.3,0.1,0.4c0.1,0.1,0.3,0,0.4-0.1V11h2
		l1,1.7C28.2,12.8,28.2,13,28.3,13.1z"/>
</g>
</svg>
