<?xml version="1.0" encoding="utf-8"?>
<!-- Generator: Adobe Illustrator 21.1.0, SVG Export Plug-In . SVG Version: 6.00 Build 0)  -->
<svg version="1.1" id="Layer_1" xmlns="http://www.w3.org/2000/svg" xmlns:xlink="http://www.w3.org/1999/xlink" x="0px" y="0px"
	 width="57px" height="51.7px" viewBox="0 0 57 51.7" style="enable-background:new 0 0 57 51.7;" xml:space="preserve">
<style type="text/css">
	.st0{fill:#C7E7F9;}
</style>
<g>
	<path class="st0" d="M28.5,44.3C18.3,44.3,10,36,10,25.8S18.3,7.4,28.5,7.4S47,15.7,47,25.8S38.7,44.3,28.5,44.3L28.5,44.3z
		 M49,27.7V24l3.7,0.8v2L49,27.7L49,27.7z M8,24v3.6l-3.7-0.8v-2L8,24L8,24z M44.3,12.7l-2.6-2.6l3.2-2l1.4,1.4L44.3,12.7L44.3,12.7
		z M12.7,39l2.6,2.6l-3.2,2l-1.4-1.4L12.7,39L12.7,39z M30.3,5.4h-3.6l0.8-3.7h2L30.3,5.4L30.3,5.4z M26.7,46.3h3.6L29.5,50h-2
		L26.7,46.3L26.7,46.3z M15.3,10.1l-2.6,2.6l-2-3.2l1.4-1.4L15.3,10.1L15.3,10.1z M41.7,41.6l2.6-2.6l2,3.2l-1.4,1.4L41.7,41.6
		L41.7,41.6z M48.1,19.7l-1.4-3.4l3.7-0.6l0.8,1.8L48.1,19.7L48.1,19.7z M8.9,32l1.4,3.4L6.6,36l-0.8-1.8L8.9,32L8.9,32z M38,7.6
		l-3.4-1.4l2.2-3.1l1.8,0.8L38,7.6L38,7.6z M19,44.1l3.4,1.4l-2.2,3.1l-1.8-0.8L19,44.1L19,44.1z M22.3,6.3L19,7.7L18.4,4l1.8-0.8
		L22.3,6.3L22.3,6.3z M34.7,45.4L38,44l0.6,3.7l-1.8,0.8L34.7,45.4L34.7,45.4z M10.2,16.3l-1.4,3.4l-3.1-2.2l0.8-1.8L10.2,16.3
		L10.2,16.3z M46.8,35.4l1.4-3.4l3.1,2.2L50.4,36L46.8,35.4L46.8,35.4z"/>
</g>
</svg>
