<?xml version="1.0" encoding="utf-8"?>
<!-- Generator: Adobe Illustrator 21.1.0, SVG Export Plug-In . SVG Version: 6.00 Build 0)  -->
<svg version="1.1" id="Layer_1" xmlns="http://www.w3.org/2000/svg" xmlns:xlink="http://www.w3.org/1999/xlink" x="0px" y="0px"
	 width="57px" height="51.7px" viewBox="0 0 57 51.7" style="enable-background:new 0 0 57 51.7;" xml:space="preserve">
<style type="text/css">
	.st0{fill:#C7E7F9;}
</style>
<g transform="translate(0,-952.36218)">
	<path class="st0" d="M28.5,952.4c-14.3,0-25.9,11.6-25.9,25.8c0,14.3,11.6,25.9,25.9,25.9s25.9-11.6,25.9-25.9
		C54.4,963.9,42.8,952.4,28.5,952.4z M28.5,958.2c0.7,0,1.3,0.6,1.3,1.3v18l14.5,8.4c0.6,0.4,0.8,1.1,0.5,1.8
		c-0.4,0.6-1.2,0.8-1.8,0.5c-5-2.9-10.1-5.8-15.1-8.7c-0.4-0.2-0.6-0.6-0.6-1.1v-18.7C27.2,958.8,27.8,958.2,28.5,958.2L28.5,958.2z
		"/>
</g>
</svg>
