<?xml version="1.0" encoding="utf-8"?>
<!-- Generator: Adobe Illustrator 21.1.0, SVG Export Plug-In . SVG Version: 6.00 Build 0)  -->
<svg version="1.1"
	 id="Layer_1" xmlns:cc="http://creativecommons.org/ns#" xmlns:dc="http://purl.org/dc/elements/1.1/" xmlns:inkscape="http://www.inkscape.org/namespaces/inkscape" xmlns:rdf="http://www.w3.org/1999/02/22-rdf-syntax-ns#" xmlns:sodipodi="http://sodipodi.sourceforge.net/DTD/sodipodi-0.dtd" xmlns:svg="http://www.w3.org/2000/svg"
	 xmlns="http://www.w3.org/2000/svg" xmlns:xlink="http://www.w3.org/1999/xlink" x="0px" y="0px" width="36px" height="41px"
	 viewBox="0 0 36 41" style="enable-background:new 0 0 36 41;" xml:space="preserve">
<style type="text/css">
	.st0{fill:none;}
	.st1{fill:#C7E7F9;}
</style>
<rect class="st0" width="36" height="41"/>
<g>
	<path class="st1" d="M19.7,25.6c0-6,0-11.9,0-17.9c0-2.2-1.9-4.1-4.1-4.1l0,0c-2.2,0-4.1,1.8-4.1,4.1c0,6,0,11.9,0,17.9
		c-2.1,1.7-3,4.6-2.2,7.2c0.8,2.8,3.4,4.7,6.3,4.7s5.5-1.9,6.3-4.7C22.6,30.1,21.7,27.3,19.7,25.6z M20.2,32.3
		c-0.7,2.2-2.6,3.6-4.7,3.6l0,0c-2.2,0-4.1-1.4-4.7-3.6c-0.7-2.2,0.1-4.5,1.9-5.7l0.3-0.2c0-6.2,0-12.4,0-18.7
		c0-1.4,1.1-2.5,2.5-2.5s2.5,1,2.5,2.4c0,6.2,0,12.4,0,18.7l0.3,0.2C20.2,27.8,20.9,30.1,20.2,32.3z"/>
	<path class="st1" d="M16.3,27.6V11.8c0-0.5-0.3-0.8-0.8-0.8l0,0l0,0c-0.5,0-0.8,0.4-0.8,0.8l0,0v15.8c-1.4,0.3-2.5,1.7-2.5,3.2
		c0,1.8,1.5,3.3,3.3,3.3s3.3-1.5,3.3-3.3C18.8,29.3,17.8,28,16.3,27.6z M15.5,32.5c-0.9,0-1.7-0.7-1.7-1.7c0-0.9,0.7-1.7,1.7-1.7
		c0.9,0,1.7,0.7,1.7,1.7S16.4,32.5,15.5,32.5z"/>
	<path class="st1" d="M8,23.4L8,23.4H3.9c-0.5,0-0.8,0.3-0.8,0.8S3.4,25,3.9,25l0,0H8c0.5,0,0.8-0.3,0.8-0.8
		C8.9,23.7,8.5,23.4,8,23.4z"/>
	<path class="st1" d="M8,13.5H5.6c-0.5,0-0.8,0.3-0.8,0.8s0.3,0.8,0.8,0.8l0,0H8c0.5,0,0.8-0.3,0.8-0.8C8.9,13.9,8.5,13.5,8,13.5
		L8,13.5z"/>
	<path class="st1" d="M3.9,11.8L3.9,11.8H8c0.5,0,0.8-0.3,0.8-0.8S8.5,10.2,8,10.2l0,0H3.9c-0.4,0-0.8,0.3-0.8,0.8
		C3.1,11.4,3.4,11.8,3.9,11.8z"/>
	<path class="st1" d="M8,6.8H5.6c-0.4,0-0.8,0.3-0.8,0.8s0.3,0.8,0.8,0.8l0,0H8c0.5,0,0.8-0.3,0.8-0.8C8.9,7.2,8.5,6.8,8,6.8L8,6.8z
		"/>
	<path class="st1" d="M3.9,5.2L3.9,5.2H8c0.5,0,0.8-0.3,0.8-0.8S8.5,3.5,8,3.5l0,0H3.9c-0.4,0-0.8,0.3-0.8,0.8
		C3.1,4.7,3.4,5.2,3.9,5.2z"/>
	<path class="st1" d="M8,20.1H5.6c-0.5,0-0.8,0.3-0.8,0.8s0.3,0.8,0.8,0.8l0,0H8c0.5,0,0.8-0.3,0.8-0.8C8.9,20.5,8.5,20.1,8,20.1
		L8,20.1z"/>
	<path class="st1" d="M3.9,18.4L3.9,18.4H8c0.5,0,0.8-0.3,0.8-0.8S8.5,16.8,8,16.8l0,0H3.9c-0.5,0-0.8,0.3-0.8,0.8
		S3.4,18.4,3.9,18.4z"/>
	<path class="st1" d="M32.1,9.3c0.5,0,0.8-0.3,0.8-0.8s-0.3-0.8-0.8-0.8l0,0h-3.3C28.3,7.6,28,8,28,8.5v3.3l0,0l0,0v3.3
		c0,0.5,0.3,0.8,0.8,0.8s0.8-0.3,0.8-0.8l0,0v-2.5h1.7c0.5,0,0.8-0.3,0.8-0.8S31.8,11,31.3,11l0,0h-1.7V9.3H32.1z"/>
	<path class="st1" d="M23.8,3.5c-1.3,0-2.5,1.2-2.5,2.5l0,0l0,0l0,0v0.8l0,0l0,0c0,1.3,1.2,2.5,2.5,2.5s2.5-1.1,2.5-2.5l0,0l0,0V6
		l0,0l0,0C26.3,4.7,25.1,3.5,23.8,3.5z M24.6,6.8L24.6,6.8c0,0.5-0.3,0.8-0.8,0.8S23,7.3,23,6.8l0,0V6l0,0l0,0
		c0-0.5,0.3-0.8,0.8-0.8s0.8,0.3,0.8,0.8l0,0l0,0l0,0V6.8L24.6,6.8z"/>
</g>
</svg>
